<svg xmlns="http://www.w3.org/2000/svg" xmlns:xlink="http://www.w3.org/1999/xlink" viewBox="0 0 600 600"><defs><style>.cls-1{fill:none;}.cls-2{fill:url(#Degradado_sin_nombre_52);}.cls-3{fill:#043263;}.cls-4{fill:#49a5e6;}.cls-5{fill:#072146;}.cls-6{fill:#5ac4c4;}.cls-7,.cls-8{opacity:0.5;isolation:isolate;}.cls-7{fill:url(#Degradado_sin_nombre_2);}.cls-8{fill:url(#Degradado_sin_nombre_49);}.cls-9{fill:#fff;}</style><linearGradient id="Degradado_sin_nombre_52" x1="230.89" y1="171.87" x2="404.43" y2="498.26" gradientUnits="userSpaceOnUse"><stop offset="0" stop-color="#192647" stop-opacity="0.5"/><stop offset="1" stop-color="#192647" stop-opacity="0"/></linearGradient><linearGradient id="Degradado_sin_nombre_2" x1="184.32" y1="233.43" x2="325.66" y2="308.57" gradientUnits="userSpaceOnUse"><stop offset="0" stop-color="#eaf9fa"/><stop offset="1" stop-color="#eaf9fa" stop-opacity="0.2"/><stop offset="1" stop-color="#eaf9fa" stop-opacity="0.5"/></linearGradient><linearGradient id="Degradado_sin_nombre_49" x1="205.11" y1="213.03" x2="326.26" y2="334.18" xlink:href="#Degradado_sin_nombre_2"/></defs><title>6</title><g id="Cuadrados_Blancos" data-name="Cuadrados Blancos"><rect class="cls-1" width="600" height="600"/></g><g id="Capa_2" data-name="Capa 2"><path class="cls-2" d="M518.25,433.21v-7.84a2.16,2.16,0,0,0-2.2-2.2H499.1a15.4,15.4,0,0,0,.59-4.11V228.59a16.87,16.87,0,0,0-16.87-16.87H186.52a16.88,16.88,0,0,0-16.87,16.87V419.06a15.4,15.4,0,0,0,.59,4.11H153.08a2.16,2.16,0,0,0-2.2,2.2v7.84H142a2.17,2.17,0,0,0-2.2,2.2V453a2.17,2.17,0,0,0,2.2,2.2H525.8A2.16,2.16,0,0,0,528,453V435.41a2.16,2.16,0,0,0-2.2-2.2Z"/><path class="cls-3" d="M149.12,175.78h296.3a16.88,16.88,0,0,1,16.87,16.87h0V398.82h-330V192.65A16.87,16.87,0,0,1,149.12,175.78Z"/><path class="cls-4" d="M154,190.45h286a7.36,7.36,0,0,1,7.34,7.34V365a7.36,7.36,0,0,1-7.34,7.33H154A7.35,7.35,0,0,1,146.7,365V197.79A7.36,7.36,0,0,1,154,190.45Z"/><path class="cls-3" d="M104.6,397.28H488.4a2.16,2.16,0,0,1,2.2,2.2v17.6a2.17,2.17,0,0,1-2.2,2.2H104.6a2.16,2.16,0,0,1-2.2-2.2v-17.6A2.2,2.2,0,0,1,104.6,397.28Z"/><path class="cls-5" d="M480.84,397.28H113.4v-7.85a2.16,2.16,0,0,1,2.2-2.2h363a2.16,2.16,0,0,1,2.2,2.2Z"/><path class="cls-6" d="M322.13,404.61h-47.6a7.35,7.35,0,0,1-7.33-7.33h62.26A7.4,7.4,0,0,1,322.13,404.61Z"/><path class="cls-7" d="M154,372.34H299.25l97.62-181.89H154a7.36,7.36,0,0,0-7.33,7.34V365A7.35,7.35,0,0,0,154,372.34Z"/><path class="cls-4" d="M153.68,190.58H440a7.37,7.37,0,0,1,7.34,7.35V365.3a7.36,7.36,0,0,1-7.34,7.34H153.68a7.36,7.36,0,0,1-7.34-7.34V197.93A7.37,7.37,0,0,1,153.68,190.58Z"/><path class="cls-8" d="M153.68,372.64H299l97.71-182.06H153.68a7.37,7.37,0,0,0-7.34,7.35V365.3A7.36,7.36,0,0,0,153.68,372.64Z"/><path class="cls-9" d="M333,258.64l-14,26.72a.83.83,0,0,1-1.17.29c-.15-.07-.22-.22-.3-.29l-14.09-26.72a.8.8,0,0,0-.74-.44H296a.58.58,0,0,0-.59.58.43.43,0,0,0,.08.3l22.09,41.4a.78.78,0,0,0,1.1.37.88.88,0,0,0,.37-.37l22.1-41.4a.6.6,0,0,0-.22-.81.48.48,0,0,0-.3-.07h-6.82a1,1,0,0,0-.74.44"/><path class="cls-9" d="M341,294.31l14-26.72a.84.84,0,0,1,1.18-.29c.14.07.22.22.29.29l14,26.72a.8.8,0,0,0,.74.44H378a.58.58,0,0,0,.59-.58.43.43,0,0,0-.08-.3l-22.09-41.4a.91.91,0,0,0-1.1-.37.88.88,0,0,0-.37.37l-22.1,41.4a.6.6,0,0,0,.22.81.48.48,0,0,0,.3.07h6.82c.44,0,.74-.14.81-.44"/><path class="cls-9" d="M235.9,294.75H223.27a.8.8,0,0,1-.8-.8V282.57a.81.81,0,0,1,.8-.81H235.9c6,0,8.74,1.69,8.74,6.46s-2.65,6.53-8.74,6.53m-12.63-30.31h12.48c4.63,0,7,2,7,5.57s-2.35,5.58-7,5.58H223.27a.8.8,0,0,1-.8-.8h0v-9.55c-.08-.44.29-.8.8-.8h0M245,277.94c2.94-1.47,4.77-4.62,4.77-8.51,0-6.68-5.21-11.16-12.47-11.16H216.23a.82.82,0,0,0-.81.81h0v41.11a.81.81,0,0,0,.81.8h20.11c10.06,0,15.42-4.33,15.42-12.84,0-8.3-6.76-10.21-6.76-10.21"/><path class="cls-9" d="M279.14,294.75H266.51a.81.81,0,0,1-.81-.8h0V282.57a.82.82,0,0,1,.81-.81h12.63c6,0,8.73,1.69,8.73,6.46s-2.64,6.53-8.73,6.53m-12.7-30.31h12.48c4.62,0,7,2,7,5.57s-2.35,5.58-7,5.58H266.44a.81.81,0,0,1-.81-.8h0v-9.55a.81.81,0,0,1,.81-.8h0m21.73,13.5c2.93-1.47,4.77-4.62,4.77-8.51,0-6.68-5.21-11.16-12.48-11.16H259.39a.82.82,0,0,0-.81.81h0v41.11a.81.81,0,0,0,.81.8h20.12c10.05,0,15.41-4.33,15.41-12.84,0-8.3-6.68-10.21-6.75-10.21"/></g></svg>