<?xml version="1.0" encoding="utf-8"?>
<!-- Generator: Adobe Illustrator 25.2.3, SVG Export Plug-In . SVG Version: 6.00 Build 0)  -->
<svg version="1.1" id="Capa_1" xmlns="http://www.w3.org/2000/svg" xmlns:xlink="http://www.w3.org/1999/xlink" x="0px" y="0px"
	 viewBox="0 0 600 600" style="enable-background:new 0 0 600 600;" xml:space="preserve">
<style type="text/css">
	.st0{fill:url(#SVGID_1_);}
	.st1{fill:#2DCCCD;}
	.st2{fill:#1464A5;}
	.st3{fill:#004481;}
	.st4{fill:#F8CD51;}
	.st5{fill:url(#SVGID_2_);}
	.st6{fill:#FEF5DC;}
	.st7{fill:none;}
</style>
<linearGradient id="SVGID_1_" gradientUnits="userSpaceOnUse" x1="241.4004" y1="470.0158" x2="418.5804" y2="136.7958" gradientTransform="matrix(1 0 0 -1 0 599.89)">
	<stop  offset="0" style="stop-color:#192647"/>
	<stop  offset="0" style="stop-color:#192647;stop-opacity:0.5"/>
	<stop  offset="1" style="stop-color:#192647;stop-opacity:0"/>
</linearGradient>
<path class="st0" d="M522.1,150L522.1,150c-13.5-7.3-29.5-8.4-43.8-3.1l-0.7,0.3c-0.5,0.2-1.1,0.4-1.6,0.6s-0.9,0.4-1.3,0.6
	s-0.7,0.3-1,0.5c-0.5,0.2-1,0.5-1.5,0.8l-0.8,0.4c-0.5,0.3-1,0.6-1.5,0.9l-0.7,0.4c-0.5,0.3-1,0.6-1.5,0.9l-0.8,0.5
	c-0.5,0.3-0.9,0.6-1.3,0.9c-0.3,0.2-0.6,0.4-0.9,0.6l-1.1,0.9c-0.3,0.2-0.6,0.5-0.9,0.7l-1,0.9c-0.3,0.3-0.7,0.6-1,0.9
	s-0.6,0.6-0.9,0.8l-1,1l-0.9,0.9c-0.3,0.3-0.6,0.6-1,1s-0.6,0.7-0.9,1s-0.5,0.6-0.8,0.9s-0.7,0.9-1.1,1.4l-0.5,0.7
	c-1.1,1.4-2.1,2.9-3,4.4c-0.2,0.4-0.5,0.8-0.7,1.2s-0.4,0.7-0.6,1l-0.1,0.2c-0.4,0.6-0.7,1.3-1,2l-0.1,0.1
	c-3.9,8.1-5.7,17.1-5.2,26.1c0,0.1,0,0.1,0,0.2c0,0.2,0,0.5,0.1,0.8c0.9,13.8,7.1,26.7,17.2,36.1l-61.4,87.9
	c-13.8-7.6-30.8-5.9-42.8,4.2l-57.4-45.7c10.3-18.2,3.8-41.3-14.4-51.6c-18.2-10.3-41.3-3.8-51.6,14.4c-7.4,13.2-6.3,29.5,2.8,41.5
	l-67.9,82.6c-18.7-9.6-41.6-2.3-51.2,16.4c-9.6,18.7-2.3,41.6,16.4,51.2c18.7,9.6,41.6,2.3,51.2-16.4c6.8-13.3,5.3-29.3-4-41
	l67.7-82.3c12.9,7,28.6,5.9,40.4-2.8l58.2,46.4c-9,18.9-0.9,41.5,18,50.5c18.9,9,41.5,0.9,50.5-18c6-12.7,4.6-27.6-3.8-38.9
	l62.5-89.5c26.9,12.9,59.2,1.6,72.1-25.3c3.5-7.3,5.3-15.3,5.3-23.4l0,0C550.8,177.7,539.8,159.4,522.1,150z"/>
<rect x="88.5" y="296.9" transform="matrix(0.6349 -0.7726 0.7726 0.6349 -170.8009 248.3142)" class="st1" width="177.6" height="16"/>
<rect x="314.6" y="249.5" transform="matrix(0.5727 -0.8198 0.8198 0.5727 -38.0555 441.9243)" class="st1" width="180.5" height="16"/>
<rect x="285.5" y="207.5" transform="matrix(0.6231 -0.7822 0.7822 0.6231 -111.4436 336.5449)" class="st1" width="16" height="152.8"/>
<circle class="st2" cx="120.2" cy="374.5" r="37.9"/>
<circle class="st3" cx="120.2" cy="374.5" r="20.3"/>
<circle class="st2" cx="235.5" cy="235.2" r="37.9"/>
<circle class="st3" cx="235.5" cy="235.2" r="20.3"/>
<circle class="st2" cx="350.4" cy="328.5" r="37.9"/>
<circle class="st3" cx="350.4" cy="328.5" r="20.3"/>
<path class="st4" d="M520.8,167.8c0,29.8-24.2,54-54,54s-54-24.2-54-54s24.2-54,54-54l0,0l0,0C496.7,113.8,520.8,137.9,520.8,167.8
	L520.8,167.8L520.8,167.8"/>
<linearGradient id="SVGID_2_" gradientUnits="userSpaceOnUse" x1="420.753" y1="783.1946" x2="465.493" y2="806.9745" gradientTransform="matrix(1 0 0 1 0 -639.89)">
	<stop  offset="0" style="stop-color:#FFFFFF;stop-opacity:0.6"/>
	<stop  offset="1" style="stop-color:#FFFFFF;stop-opacity:0.2"/>
</linearGradient>
<path class="st5" d="M490.9,119.5c-26.7-13.3-59.1-2.5-72.4,24.2c-12.8,25.7-3.3,57,21.8,71.1L490.9,119.5z"/>
<path class="st6" d="M473.5,178.3c0-3.6-1.4-5-8.1-8c-9.6-4.4-12.5-7.7-12.5-14.5s5.4-11.4,10.9-12.9v-8.2h0.3l7.9,3.5v4.5
	c2.5,0.4,4.9,1.2,7.1,2.4l0.4,0.2l0.3,0.1l-0.1,0.3l-0.1,0.4l-1,6.2l-0.2,1.2l-0.1,0.8l-0.7-0.4l-1-0.7c-2.5-2-5.7-3.1-8.9-3.1
	c-4.2,0-6.4,1.9-6.4,5c0,3,1.5,4.3,8,7.4c9.7,4.4,12.8,7.9,12.8,15.1c-0.1,6.2-4.2,11.6-10.2,13.4v9.4h-0.6l-7.6-4.2v-4.6
	c-3.7-0.5-7.3-1.5-10.8-3l-0.5-0.2l-0.3-0.1v-0.3l0.1-0.5l0.9-6.4l0.1-1.1l0.1-0.8l0.6,0.4l0.9,0.6c3.4,2.3,7.4,3.5,11.5,3.6
	C470.6,184,473.5,181.8,473.5,178.3"/>
<rect y="0" class="st7" width="600" height="600"/>
</svg>
