<svg xmlns="http://www.w3.org/2000/svg" width="64" height="64" viewBox="0 0 64 64">
    <g fill="none" fill-rule="evenodd">
        <g>
            <g>
                <path fill="#F3F6FE" d="M30 0L60 30 30 60 0 30zM7.414 53.586L7 55l.414 1.414L6 56l-1.414.414L5 55l-.414-1.414L6 54l1.414-.414zm49.293-10.293L56.5 44l.207.707L56 44.5l-.707.207L55.5 44l-.207-.707.707.207.707-.207zm-9.44-38.56L46.75 6.5l.518 1.768L45.5 7.75l-1.768.518.518-1.768-.518-1.768 1.768.518 1.768-.518z" transform="translate(2 2)"/>
                <path fill="#ADBAE6" d="M19 55l2 2-2 2-2-2 2-2zm34-3l2 2-2 2-2-2 2-2zM2 37l2 2-2 2-2-2 2-2zm55-21l2 2-2 2-2-2 2-2zM10 3l3 3-3 3-3-3 3-3z" transform="translate(2 2)"/>
            </g>
            <g>
                <path fill="#ADBAE6" d="M6 9H37V30H6zM3 30H39V33H3z" transform="translate(12 12)"/>
                <path fill="#00246F" d="M4 8h32v22h2v2H2v-2h2V8z" transform="translate(12 12)"/>
                <path fill="#FFF" d="M6 30V10h28v20H24l-3 .5h-2l-3-.5H6zm15-19h-1v1h1v-1z" transform="translate(12 12)"/>
                <path fill="#E6E9F4" d="M7 13H11V28H7zM31 13H33V28H31z" transform="translate(12 12)"/>
            </g>
            <g>
                <path fill="#00246F" d="M15.71 2c-1.669 0-3.295.67-4.469 1.845l-.17.177c-1.502 1.626-2.044 3.962-1.412 6.086l.028.09-6.835 6.836C2.304 17.582 2 18.316 2 19.09c0 .776.305 1.51.854 2.058.545.548 1.28.852 2.056.852l.193-.006c.704-.046 1.363-.344 1.865-.847l6.835-6.834-.145-.045c.653.222 1.336.335 2.03.335 1.67 0 3.297-.67 4.47-1.843 1.735-1.735 2.304-4.338 1.451-6.655l-.04-.093c-.172-.344-.491-.55-.86-.603l-.13-.01-.125.008c-.166.019-.324.075-.463.163l-.083.059-2.73 1.829h-.633v-.634L18.284 4.2c.26-.266.372-.646.293-1.012-.086-.375-.347-.674-.7-.804C17.182 2.13 16.452 2 15.71 2z" transform="translate(33 14)"/>
                <path fill="#FFF" d="M15.974 3.826c.088.005.175.013.261.023l.104.014-1.612 2.41v3.003h3.004l2.404-1.61.018.118c.153 1.348-.304 2.714-1.28 3.69-.831.831-1.996 1.31-3.185 1.31-.495 0-.98-.08-1.444-.237l-.928-.317-7.634 7.632c-.208.208-.478.32-.772.32-.294 0-.564-.112-.77-.319-.21-.209-.322-.48-.322-.773 0-.292.113-.563.32-.77l7.632-7.632-.315-.93c-.549-1.609-.126-3.43 1.072-4.628.832-.832 1.996-1.312 3.184-1.312l.263.008z" transform="translate(33 14)"/>
            </g>
            <g>
                <path fill="#FFF" d="M14 4.931L11.071 2 8 5.07 4.929 2 2 4.931 5.07 8 2 11.071 4.929 14 8 10.93 11.071 14 14 11.071 10.93 8z" transform="translate(38 36)"/>
                <path fill="#E24C4C" d="M10.771 4L12 5.23 9.23 8.001 12 10.771 10.771 12 8 9.23 5.229 12 4 10.771 6.771 8.001 4 5.23 5.229 4 8 6.771z" transform="translate(38 36)"/>
            </g>
        </g>
    </g>
</svg>
