<?xml version="1.0" encoding="utf-8"?>
<!-- Generator: Adobe Illustrator 23.0.1, SVG Export Plug-In . SVG Version: 6.00 Build 0)  -->
<svg version="1.1" id="Contenido" xmlns="http://www.w3.org/2000/svg" xmlns:xlink="http://www.w3.org/1999/xlink" x="0px" y="0px"
	 viewBox="0 0 600 600" style="enable-background:new 0 0 600 600;" xml:space="preserve">
<style type="text/css">
	.st0{fill:url(#SVGID_1_);}
	.st1{fill:#1464A5;}
	.st2{fill:url(#SVGID_2_);}
	.st3{fill:#2DCCCD;}
</style>
<title>financial_health</title>
<linearGradient id="SVGID_1_" gradientUnits="userSpaceOnUse" x1="252.312" y1="153.0943" x2="435.2277" y2="497.1088">
	<stop  offset="0" style="stop-color:#192647"/>
	<stop  offset="0" style="stop-color:#192647;stop-opacity:0.5"/>
	<stop  offset="1" style="stop-color:#192647;stop-opacity:0"/>
</linearGradient>
<circle class="st0" cx="347.8" cy="332.7" r="170.5"/>
<circle class="st1" cx="307.8" cy="292.7" r="170.5"/>
<linearGradient id="SVGID_2_" gradientUnits="userSpaceOnUse" x1="478.35" y1="299.6351" x2="227.89" y2="299.6351" gradientTransform="matrix(1 0 0 -1 0 602)">
	<stop  offset="0" style="stop-color:#043263;stop-opacity:0.6"/>
	<stop  offset="1" style="stop-color:#043263;stop-opacity:0"/>
</linearGradient>
<path class="st2" d="M388,142.2L227.9,443.4c83.6,43.4,186.6,10.7,229.9-72.9C500.6,288.1,469.5,186.6,388,142.2z"/>
<polygon class="st3" points="290.9,356.8 290.9,253.5 321.3,253.5 321.3,386.3 320.3,386.3 "/>
<path class="st3" d="M289.4,217.7c0.1-10.2,8.4-18.4,18.6-18.3s18.4,8.4,18.3,18.6c-0.1,10.1-8.3,18.3-18.4,18.3
	C297.6,236.2,289.3,227.9,289.4,217.7C289.4,217.7,289.4,217.7,289.4,217.7"/>
</svg>
