<?xml version="1.0" encoding="UTF-8"?>
<svg width="22px" height="22px" viewBox="0 0 22 22" version="1.1" xmlns="http://www.w3.org/2000/svg" xmlns:xlink="http://www.w3.org/1999/xlink">
    <title>Group 17</title>
    <g id="Page-1" stroke="none" stroke-width="1" fill="none" fill-rule="evenodd">
        <g id="1-Cookies-D" transform="translate(-351.000000, -749.000000)">
            <g id="Group-7-Copy-2" transform="translate(319.000000, 720.000000)">
                <g id="Group-17" transform="translate(33.000000, 30.000000)">
                    <path d="M6.5,4 C5.671,4 5,4.672 5,5.5 C5,6.328 5.671,7 6.5,7 C7.329,7 8,6.328 8,5.5 C8,4.672 7.329,4 6.5,4" id="Fill-1" fill="#000000"></path>
                    <path d="M4.5015,10 C4.4645,10 4.4275,10.001 4.3905,10.004 C3.5645,10.064 2.9435,10.783 3.0035,11.609 C3.0615,12.398 3.7195,13 4.4985,13 C4.5355,13 4.5725,12.999 4.6095,12.996 C5.4355,12.936 6.0565,12.217 5.9965,11.391 C5.9385,10.602 5.2805,10 4.5015,10" id="Fill-3" fill="#000000"></path>
                    <path d="M10.5015,9 C10.4645,9 10.4275,9.001 10.3905,9.004 C9.5645,9.064 8.9435,9.783 9.0035,10.609 C9.0615,11.398 9.7195,12 10.4985,12 C10.5355,12 10.5725,11.999 10.6095,11.996 C11.4355,11.936 12.0565,11.217 11.9965,10.391 C11.9385,9.602 11.2805,9 10.5015,9" id="Fill-5" fill="#000000"></path>
                    <path d="M15.5015,12 C15.4645,12 15.4275,12.001 15.3905,12.004 C14.5645,12.064 13.9435,12.783 14.0035,13.609 C14.0615,14.398 14.7195,15 15.4985,15 C15.5355,15 15.5725,14.999 15.6095,14.996 C16.4355,14.936 17.0565,14.217 16.9965,13.391 C16.9385,12.602 16.2805,12 15.5015,12" id="Fill-7" fill="#000000"></path>
                    <path d="M9.5015,15 C9.4645,15 9.4275,15.001 9.3905,15.004 C8.5645,15.064 7.9435,15.783 8.0035,16.609 C8.0615,17.398 8.7195,18 9.4985,18 C9.5355,18 9.5725,17.999 9.6095,17.996 C10.4355,17.936 11.0565,17.217 10.9965,16.391 C10.9385,15.602 10.2805,15 9.5015,15" id="Fill-9" fill="#000000"></path>
                    <path d="M18.5,5 C18.224,5 18,5.224 18,5.5 C18,5.776 18.224,6 18.5,6 C18.776,6 19,5.776 19,5.5 C19,5.224 18.776,5 18.5,5" id="Fill-11" fill="#000000"></path>
                    <path d="M17.5,2 C17.224,2 17,2.224 17,2.5 C17,2.776 17.224,3 17.5,3 C17.776,3 18,2.776 18,2.5 C18,2.224 17.776,2 17.5,2" id="Fill-13" fill="#000000"></path>
                    <path d="M19.9312,8.8193 C19.9762,9.2073 20.0002,9.6003 20.0002,10.0003 C20.0002,15.5223 15.5232,20.0003 10.0002,20.0003 C4.4772,20.0003 0.0002,15.5223 0.0002,10.0003 C0.0002,4.4773 4.4772,0.0003 10.0002,0.0003 C10.6902,0.0003 11.3642,0.0703 12.0152,0.2033 C12.0152,0.2033 10.2932,1.8793 11.0002,4.0003 C12.0002,7.0003 15.0002,6.0003 15.0002,6.0003 C15.0002,6.0003 15.0002,8.0003 17.0002,9.0003 C18.2652,9.6323 19.9312,8.8193 19.9312,8.8193 Z" id="Stroke-15" stroke="#000000" stroke-width="2" stroke-linecap="round" stroke-linejoin="round"></path>
                </g>
            </g>
        </g>
    </g>
</svg>