<?xml version="1.0" encoding="utf-8"?>
<!-- Generator: Adobe Illustrator 25.4.1, SVG Export Plug-In . SVG Version: 6.00 Build 0)  -->
<svg version="1.1" id="Capa_1" xmlns="http://www.w3.org/2000/svg" xmlns:xlink="http://www.w3.org/1999/xlink" x="0px" y="0px"
	 viewBox="0 0 415.3 101.4" style="enable-background:new 0 0 415.3 101.4;" xml:space="preserve">
<style type="text/css">
	.st0{fill:#CE0E2D;}
	.st1{fill:#FFFFFF;}
	.st2{fill:#3C9FD2;}
	.st3{fill:#38A1D4;}
	.st4{fill:#003B71;}
	.st5{fill:none;stroke:#FFFFFF;stroke-width:2.9466;stroke-miterlimit:10;}
</style>
<g>
	<g>
		<g>
			<path class="st0" d="M34.9,14c-2.2,0-4,2.8-3.9,6.2c0.1,3.4,1.8,6,3.9,6c2.1,0,3.8-2.6,3.9-5.9C38.9,16.9,37.1,14,34.9,14"/>
			<path class="st0" d="M67.9,47.1c0-2.3-2.8-4-6.2-3.9c-3.4,0.1-6,1.8-6,3.9c0,2.1,2.6,3.8,5.9,3.9C65,51.1,67.9,49.4,67.9,47.1"/>
			<path class="st0" d="M34.8,80.1c2.3,0,4-2.8,3.9-6.2c-0.1-3.4-1.8-6-3.9-6c-2.1,0-3.8,2.6-3.9,5.9C30.8,77.3,32.6,80.1,34.8,80.1
				"/>
			<path class="st0" d="M1.8,47.1c0,2.2,2.8,4,6.2,3.9c3.4-0.1,6-1.8,6-3.9c0-2.1-2.6-3.8-5.9-3.9C4.7,43.1,1.8,44.8,1.8,47.1"/>
			<path class="st0" d="M56.6,25.5c-1.5-1.5-4.2-1.2-6.1,0.8c-1.9,2-2.4,4.9-1.1,6.3c1.4,1.4,4.3,0.9,6.3-1
				C57.7,29.7,58.1,27,56.6,25.5"/>
			<path class="st0" d="M56.6,68.7c1.5-1.5,1.2-4.2-0.8-6.1c-2-1.9-4.9-2.4-6.3-1c-1.4,1.4-0.9,4.3,1,6.3
				C52.3,69.9,55,70.2,56.6,68.7"/>
			<path class="st0" d="M13.3,68.7c1.5,1.5,4.2,1.2,6.1-0.8c1.9-2,2.5-4.9,1-6.3c-1.4-1.4-4.3-0.9-6.3,1
				C12.2,64.5,11.8,67.2,13.3,68.7"/>
			<path class="st0" d="M13.3,25.5c-1.5,1.5-1.2,4.2,0.8,6.1c2,1.9,4.9,2.4,6.4,1.1c1.4-1.4,0.9-4.3-1-6.3
				C17.6,24.3,14.9,24,13.3,25.5"/>
			<path class="st0" d="M34.9,32.9c-1,0-1.8,1-1.8,2.2c0,1.2,0.8,2.1,1.8,2.1c1,0,1.8-0.9,1.8-2.1C36.8,33.9,36,32.9,34.9,32.9"/>
			<path class="st1" d="M43.6,26.1c-1.5-0.6-3.3,0.6-4,2.5c-0.7,1.9-0.2,3.9,1.2,4.4c1.4,0.6,3.1-0.4,4-2.3
				C45.6,28.9,45.1,26.7,43.6,26.1"/>
			<path class="st1" d="M55.9,38.4c-0.6-1.5-2.7-1.9-4.6-1.1c-1.9,0.8-2.9,2.6-2.3,4c0.6,1.4,2.5,1.9,4.4,1.2
				C55.4,41.7,56.5,39.9,55.9,38.4"/>
			<path class="st1" d="M55.9,55.8c0.6-1.5-0.6-3.3-2.5-4c-1.9-0.7-3.9-0.2-4.4,1.2c-0.6,1.4,0.4,3.1,2.3,4
				C53.2,57.7,55.3,57.3,55.9,55.8"/>
			<path class="st1" d="M43.7,68.1c1.5-0.6,1.9-2.7,1.1-4.6c-0.8-1.9-2.6-2.9-4-2.3c-1.4,0.6-1.9,2.5-1.2,4.4
				C40.3,67.5,42.2,68.7,43.7,68.1"/>
			<path class="st1" d="M26.3,68.1c1.5,0.6,3.3-0.6,4-2.5c0.7-1.9,0.2-3.9-1.2-4.4c-1.4-0.6-3.1,0.4-4,2.3
				C24.3,65.3,24.8,67.5,26.3,68.1"/>
			<path class="st1" d="M14,55.8c0.6,1.5,2.7,1.9,4.6,1.1c1.9-0.8,2.9-2.6,2.3-4c-0.6-1.4-2.5-1.9-4.4-1.2
				C14.5,52.5,13.4,54.3,14,55.8"/>
			<path class="st1" d="M14,38.4c-0.6,1.5,0.6,3.3,2.5,4c1.9,0.7,3.9,0.2,4.4-1.2c0.6-1.4-0.4-3.1-2.3-4
				C16.7,36.5,14.6,36.9,14,38.4"/>
			<path class="st1" d="M26.3,26.1c-1.5,0.6-1.9,2.7-1.1,4.6c0.8,1.9,2.6,2.9,4,2.3c1.4-0.6,1.9-2.5,1.2-4.4
				C29.6,26.7,27.7,25.5,26.3,26.1"/>
			<path class="st0" d="M49.2,47.1c0-1-1-1.8-2.2-1.8c-1.2,0-2.1,0.8-2.1,1.8c0,1,0.9,1.8,2.1,1.8C48.1,48.9,49.2,48.1,49.2,47.1"/>
			<path class="st0" d="M34.9,61.3c1,0,1.8-1,1.8-2.2c0-1.2-0.8-2.1-1.8-2.1c-1,0-1.8,0.9-1.8,2.1C33.1,60.3,33.9,61.3,34.9,61.3"/>
			<path class="st0" d="M20.7,47.1c0,1,1,1.8,2.2,1.8c1.2,0,2.1-0.8,2.1-1.8c0-1-0.9-1.8-2.1-1.8C21.8,45.3,20.7,46.1,20.7,47.1"/>
			<path class="st0" d="M24.9,37c-0.7,0.7-0.6,2,0.3,2.8c0.9,0.8,2.1,0.9,2.8,0.2c0.7-0.7,0.6-1.9-0.2-2.8
				C26.9,36.5,25.6,36.3,24.9,37"/>
			<path class="st0" d="M45,37c-0.7-0.7-2-0.6-2.8,0.3c-0.8,0.9-0.9,2.1-0.2,2.8c0.7,0.7,1.9,0.6,2.8-0.2C45.6,39.1,45.7,37.8,45,37
				"/>
			<path class="st0" d="M45,57.2c0.7-0.7,0.6-2-0.3-2.8c-0.9-0.8-2.1-0.9-2.8-0.2c-0.7,0.7-0.6,1.9,0.2,2.8
				C43,57.7,44.3,57.9,45,57.2"/>
			<path class="st0" d="M24.9,57.2c0.7,0.7,2,0.6,2.8-0.3c0.8-0.9,0.9-2.1,0.2-2.8c-0.7-0.7-1.9-0.6-2.8,0.2
				C24.3,55.1,24.2,56.4,24.9,57.2"/>
			<path class="st1" d="M49.3,12.3c-1.2-0.5-2.8,0.7-3.5,2.5c-0.7,1.8-0.3,3.6,0.8,4.1c1.1,0.5,2.6-0.5,3.4-2.3
				C50.8,14.8,50.5,12.8,49.3,12.3"/>
			<path class="st1" d="M69.7,32.7c-0.5-1.2-2.4-1.5-4.2-0.7c-1.8,0.8-2.8,2.3-2.3,3.4c0.5,1.1,2.2,1.5,4,0.8
				C69,35.5,70.2,33.9,69.7,32.7"/>
			<path class="st1" d="M69.7,61.5c0.5-1.2-0.7-2.8-2.5-3.5c-1.8-0.7-3.6-0.3-4.1,0.8c-0.5,1.1,0.5,2.6,2.3,3.4
				C67.3,63,69.2,62.7,69.7,61.5"/>
			<path class="st1" d="M49.4,81.9c1.2-0.5,1.5-2.4,0.7-4.2c-0.8-1.8-2.3-2.8-3.4-2.3c-1.1,0.5-1.5,2.2-0.8,4
				C46.6,81.2,48.2,82.4,49.4,81.9"/>
			<path class="st1" d="M20.6,81.9c1.2,0.5,2.8-0.7,3.5-2.5c0.7-1.8,0.3-3.6-0.8-4.1c-1.1-0.5-2.6,0.5-3.4,2.3
				C19.1,79.4,19.4,81.4,20.6,81.9"/>
			<path class="st1" d="M0.2,61.5c0.5,1.2,2.4,1.5,4.2,0.7c1.8-0.8,2.8-2.3,2.3-3.4c-0.5-1.1-2.2-1.5-4-0.8
				C0.9,58.7-0.3,60.3,0.2,61.5"/>
			<path class="st1" d="M0.2,32.7c-0.5,1.2,0.7,2.8,2.5,3.5c1.8,0.7,3.6,0.3,4.1-0.8c0.5-1.1-0.5-2.6-2.3-3.4
				C2.6,31.2,0.7,31.5,0.2,32.7"/>
			<path class="st1" d="M20.5,12.3c-1.2,0.5-1.5,2.4-0.7,4.2c0.8,1.8,2.3,2.8,3.4,2.3c1.1-0.5,1.5-2.2,0.8-4
				C23.3,13,21.7,11.8,20.5,12.3"/>
			<g>
				<path class="st1" d="M98.1,47.5c-0.5-0.5-1.1-0.9-1.7-1.1c-0.2-0.1-0.4-0.2-0.6-0.2c0.1-0.1,0.2-0.1,0.3-0.2
					c0.5-0.3,0.9-0.7,1.2-1.1c0.3-0.4,0.6-1,0.8-1.5c0.2-0.6,0.3-1.2,0.3-1.9c0-1.1-0.2-2.1-0.6-2.8c-0.4-0.8-1-1.4-1.7-1.9
					c-0.7-0.5-1.6-0.8-2.6-1.1c-1-0.2-2.1-0.3-3.3-0.3c-1,0-1.9,0-2.8,0.1c-1,0.1-1.7,0.1-2.2,0.2l-0.3,0.1v22.7l0.3,0
					c0.8,0.1,1.7,0.2,2.6,0.3c0.9,0.1,1.8,0.1,2.6,0.1c1.3,0,2.5-0.1,3.6-0.3c1.1-0.2,2.1-0.6,3-1.2c0.9-0.5,1.5-1.3,2-2.1
					c0.5-0.9,0.8-2,0.8-3.2c0-1-0.2-1.9-0.5-2.7C99.1,48.6,98.6,48,98.1,47.5 M88.8,48.2H91c0.7,0,1.4,0.1,2,0.2
					c0.6,0.1,1.1,0.3,1.5,0.6c0.4,0.3,0.7,0.7,1,1.1c0.2,0.5,0.4,1.1,0.4,1.8c0,0.7-0.1,1.3-0.4,1.7c-0.3,0.4-0.6,0.8-1,1.1
					c-0.5,0.3-1,0.5-1.6,0.6c-1,0.2-2.1,0.2-3.3,0.1c-0.3,0-0.5,0-0.7,0V48.2z M93.6,44c-0.7,0.5-1.7,0.8-3,0.8h-1.9v-6.3
					c0.2,0,0.4,0,0.6,0c0.4,0,0.8,0,1.2,0c1.3,0,2.3,0.3,3,0.8c0.7,0.5,1,1.3,1,2.3C94.6,42.7,94.3,43.5,93.6,44"/>
				<path class="st1" d="M107.7,41.6c-0.8,0-1.6,0.1-2.5,0.2c-0.9,0.1-1.7,0.3-2.4,0.5l-0.3,0.1v0.3c0,1,0.2,1.9,0.6,2.6l0.2,0.3
					l0.3-0.1c0.6-0.2,1.2-0.3,1.8-0.4c0.6-0.1,1.3-0.2,1.9-0.2c1.1,0,1.9,0.2,2.4,0.6c0.5,0.4,0.8,1.1,0.8,2.2v0.2
					c-0.2,0-0.4,0-0.7-0.1c-0.4,0-1,0-1.6,0c-0.9,0-1.8,0.1-2.6,0.3c-0.8,0.2-1.6,0.6-2.2,1c-0.7,0.5-1.2,1.1-1.6,1.8
					c-0.4,0.7-0.6,1.6-0.6,2.5c0,1,0.2,1.8,0.5,2.5c0.3,0.7,0.8,1.3,1.4,1.7c0.6,0.4,1.3,0.8,2.2,1c0.8,0.2,1.8,0.3,2.8,0.3
					c1.1,0,2.2-0.1,3.2-0.3c1-0.2,1.9-0.3,2.6-0.5l0.3-0.1V47.8c0-2.1-0.6-3.7-1.7-4.7C111.5,42.1,109.9,41.6,107.7,41.6 M110.7,51
					v4.4c-0.3,0.1-0.6,0.1-1,0.2c-0.9,0.1-1.7,0.1-2.6,0c-0.4,0-0.7-0.1-1-0.3c-0.3-0.2-0.5-0.4-0.7-0.7c-0.2-0.3-0.3-0.7-0.3-1.2
					c0-0.8,0.3-1.4,0.8-1.9c0.6-0.4,1.5-0.6,2.7-0.6c0.3,0,0.7,0,1.2,0.1C110.2,51,110.4,51,110.7,51"/>
				<path class="st1" d="M125.3,41.6c-0.7,0-1.3,0.1-1.9,0.3c-0.6,0.2-1.1,0.4-1.5,0.7c-0.4,0.3-0.8,0.6-1.2,1
					c-0.1,0.1-0.1,0.2-0.2,0.2c0-0.1,0-0.2,0-0.3c-0.1-0.5-0.1-1-0.2-1.3l-0.1-0.2l-0.2,0c-0.2,0-0.4-0.1-0.7-0.1
					c-0.4,0-0.9,0-1.4,0c-0.2,0-0.5,0.1-0.7,0.1L117,42v16.4l0.3,0.1c0.2,0,0.5,0.1,0.8,0.1c0.6,0,1,0,1.6,0c0.3,0,0.5-0.1,0.8-0.1
					l0.3-0.1v-8.3c0-0.9,0.1-1.7,0.3-2.4c0.2-0.6,0.5-1.2,0.9-1.5c0.3-0.4,0.8-0.7,1.2-0.9c0.5-0.2,1-0.3,1.5-0.3
					c0.9,0,1.5,0.3,1.8,0.9c0.4,0.6,0.6,1.6,0.6,3v9.5l0.3,0.1c0.2,0,0.5,0.1,0.8,0.1c0.3,0,0.6,0,0.8,0c0.2,0,0.5,0,0.8,0
					c0.3,0,0.6-0.1,0.8-0.1l0.3-0.1V48.1c0-2.1-0.5-3.7-1.4-4.8C128.6,42.2,127.2,41.6,125.3,41.6"/>
				<path class="st1" d="M145.8,56.3c-0.1-0.5-0.3-0.8-0.5-1.2l-0.2-0.3l-0.3,0.1c-0.5,0.2-1,0.3-1.5,0.4c-0.5,0.1-1.1,0.1-1.6,0.1
					c-1.4,0-2.6-0.4-3.4-1.3c-0.8-0.8-1.2-2.2-1.2-4.1c0-1.6,0.4-3,1.1-3.9c0.7-1,1.8-1.4,3.2-1.4c1.2,0,2.4,0.2,3.3,0.5l0.3,0.1
					l0.1-0.3c0.2-0.4,0.3-0.8,0.4-1.3c0.1-0.5,0.1-0.9,0.1-1.3v-0.3l-0.2-0.1c-0.6-0.2-1.3-0.4-1.9-0.5c-0.7-0.1-1.5-0.2-2.3-0.2
					c-1.3,0-2.5,0.2-3.5,0.7c-1,0.4-1.9,1.1-2.5,1.8c-0.7,0.8-1.2,1.7-1.5,2.7c-0.3,1-0.5,2.2-0.5,3.4c0,2.6,0.7,4.7,2.1,6.3
					c1.4,1.6,3.5,2.4,6.2,2.4c1.6,0,3-0.2,4.3-0.7l0.2-0.1l0-0.3C146,57.3,145.9,56.8,145.8,56.3"/>
				<path class="st1" d="M160.8,44.1c-0.7-0.8-1.5-1.4-2.4-1.9c-1-0.5-2.1-0.7-3.4-0.7c-1.3,0-2.4,0.2-3.4,0.7
					c-1,0.5-1.8,1.1-2.4,1.9c-0.6,0.8-1.1,1.7-1.4,2.7c-0.3,1-0.5,2.2-0.5,3.4c0,1.2,0.2,2.3,0.5,3.4c0.3,1,0.8,2,1.4,2.7
					c0.7,0.8,1.5,1.4,2.4,1.8c1,0.4,2.1,0.7,3.4,0.7c1.3,0,2.4-0.2,3.4-0.7c1-0.4,1.8-1.1,2.4-1.8c0.6-0.8,1.1-1.7,1.4-2.7
					c0.3-1,0.5-2.2,0.5-3.4c0-1.2-0.2-2.3-0.5-3.4C161.9,45.8,161.4,44.9,160.8,44.1 M155,55.7c-1.3,0-2.2-0.5-2.8-1.4
					c-0.6-1-0.9-2.3-0.9-4.1c0-1.7,0.3-3.1,0.9-4.1c0.6-0.9,1.5-1.4,2.8-1.4c1.3,0,2.2,0.4,2.8,1.4c0.6,0.9,1,2.3,1,4.1
					c0,1.7-0.3,3.1-1,4.1C157.2,55.2,156.3,55.7,155,55.7"/>
				<path class="st1" d="M187.1,54.7l-0.2-0.3l-0.3,0.1c-0.6,0.3-1.2,0.5-1.9,0.6c-0.7,0.1-1.4,0.2-2.3,0.2c-1.1,0-2-0.2-2.9-0.5
					c-0.8-0.3-1.6-0.8-2.2-1.5c-0.6-0.6-1.1-1.5-1.4-2.5c-0.3-1-0.5-2.3-0.5-3.7c0-2.7,0.6-4.9,1.8-6.3c1.2-1.4,2.8-2.1,4.9-2.1
					c0.5,0,0.9,0,1.3,0c0.4,0,0.7,0.1,1.1,0.1c0.3,0.1,0.6,0.1,0.9,0.2c0.3,0.1,0.6,0.2,0.9,0.3l0.3,0.1l0.1-0.3
					c0.2-0.4,0.3-0.9,0.5-1.3c0.1-0.4,0.2-0.9,0.3-1.4l0-0.3l-0.3-0.1c-0.7-0.2-1.4-0.4-2.3-0.6c-0.9-0.2-1.9-0.3-3.1-0.3
					c-1.6,0-3.1,0.3-4.4,0.8c-1.3,0.6-2.4,1.4-3.4,2.4c-0.9,1-1.6,2.3-2.1,3.8c-0.5,1.5-0.7,3.1-0.7,4.9c0,1.8,0.2,3.4,0.7,4.8
					c0.5,1.4,1.2,2.7,2.1,3.7c0.9,1,2.1,1.8,3.4,2.3c1.3,0.5,2.8,0.8,4.5,0.8c1.1,0,2.1-0.1,3-0.3c0.9-0.2,1.8-0.4,2.7-0.8l0.3-0.1
					l0-0.3C187.8,56.5,187.5,55.6,187.1,54.7"/>
				<path class="st1" d="M195.8,41.6c-0.8,0-1.6,0.1-2.5,0.2c-0.9,0.1-1.7,0.3-2.4,0.5l-0.3,0.1v0.3c0,1,0.2,1.9,0.6,2.6l0.1,0.3
					l0.3-0.1c0.6-0.2,1.2-0.3,1.8-0.4c0.6-0.1,1.3-0.2,1.9-0.2c1.1,0,1.9,0.2,2.4,0.6c0.5,0.4,0.8,1.1,0.8,2.2v0.2
					c-0.2,0-0.4,0-0.7-0.1c-0.4,0-1,0-1.6,0c-0.9,0-1.8,0.1-2.6,0.3c-0.8,0.2-1.6,0.6-2.2,1c-0.7,0.5-1.2,1.1-1.6,1.8
					c-0.4,0.7-0.6,1.6-0.6,2.5c0,1,0.2,1.8,0.5,2.5c0.3,0.7,0.8,1.3,1.4,1.7c0.6,0.4,1.3,0.8,2.2,1c0.8,0.2,1.8,0.3,2.8,0.3
					c1.1,0,2.2-0.1,3.2-0.3c1-0.2,1.9-0.3,2.6-0.5l0.3-0.1V47.8c0-2.2-0.6-3.7-1.7-4.7C199.6,42.1,197.9,41.6,195.8,41.6 M198.7,51
					v4.4c-0.3,0.1-0.6,0.1-1,0.2c-0.9,0.1-1.7,0.1-2.6,0c-0.4,0-0.7-0.1-1-0.3c-0.3-0.2-0.5-0.4-0.7-0.7c-0.2-0.3-0.3-0.7-0.3-1.2
					c0-0.8,0.3-1.4,0.8-1.9c0.6-0.4,1.5-0.6,2.7-0.6c0.3,0,0.7,0,1.2,0.1C198.2,51,198.5,51,198.7,51"/>
				<path class="st1" d="M205.3,42.2c0,0.2-0.1,0.4-0.1,0.6c0,0.2,0,0.5,0,0.7c0,0.2,0,0.4,0,0.7c0,0.2,0.1,0.4,0.1,0.6l0.1,0.3h1.9
					v13.7c0,0.6-0.1,1-0.2,1.3c-0.1,0.3-0.3,0.5-0.5,0.6c-0.2,0.1-0.4,0.2-0.6,0.3c-1,0.1-1.8,0-2.4-0.2l-0.3-0.1l-0.1,0.3
					c-0.2,0.4-0.3,0.8-0.4,1.2c-0.1,0.4-0.1,0.9-0.2,1.3l0,0.3l0.3,0.1c0.8,0.3,1.8,0.4,2.9,0.4c0.7,0,1.4-0.1,2-0.3
					c0.6-0.2,1.2-0.5,1.7-0.9c0.5-0.4,0.9-1,1.1-1.6c0.3-0.7,0.4-1.5,0.4-2.4V42h-5.6L205.3,42.2z"/>
				<path class="st1" d="M206.6,38.9l0,0.3l0.3,0c0.3,0,0.5,0.1,0.9,0.1c0.3,0,0.6,0,0.8,0c0.2,0,0.5,0,0.8,0c0.3,0,0.6-0.1,0.8-0.1
					l0.3,0l0-0.3c0-0.3,0.1-0.6,0.1-0.8c0-0.3,0-0.5,0-0.8c0-0.2,0-0.5,0-0.8c0-0.3-0.1-0.5-0.1-0.8l0-0.3l-0.3,0
					c-0.2,0-0.5-0.1-0.8-0.1c-0.3,0-0.6,0-0.8,0c-0.2,0-0.5,0-0.8,0c-0.3,0-0.6,0.1-0.9,0.1l-0.3,0l0,0.3c0,0.3-0.1,0.5-0.1,0.8
					c0,0.3,0,0.5,0,0.8c0,0.2,0,0.5,0,0.8C206.5,38.3,206.5,38.6,206.6,38.9"/>
				<path class="st1" d="M220,41.6c-0.8,0-1.6,0.1-2.5,0.2c-0.9,0.1-1.7,0.3-2.4,0.5l-0.3,0.1v0.3c0,1,0.2,1.9,0.6,2.6l0.1,0.3
					l0.3-0.1c0.6-0.2,1.2-0.3,1.8-0.4c0.6-0.1,1.3-0.2,1.9-0.2c1.1,0,1.9,0.2,2.4,0.6c0.5,0.4,0.8,1.1,0.8,2.2v0.2
					c-0.2,0-0.4,0-0.7-0.1c-0.4,0-1,0-1.6,0c-0.9,0-1.8,0.1-2.6,0.3c-0.8,0.2-1.6,0.6-2.2,1c-0.7,0.5-1.2,1.1-1.6,1.8
					c-0.4,0.7-0.6,1.6-0.6,2.5c0,1,0.2,1.8,0.5,2.5c0.3,0.7,0.8,1.3,1.4,1.7c0.6,0.4,1.3,0.8,2.2,1c0.8,0.2,1.8,0.3,2.8,0.3
					c1.1,0,2.2-0.1,3.2-0.3c1-0.2,1.9-0.3,2.6-0.5l0.3-0.1V47.8c0-2.2-0.6-3.7-1.7-4.7C223.8,42.1,222.1,41.6,220,41.6 M222.9,51
					v4.4c-0.3,0.1-0.6,0.1-1,0.2c-0.9,0.1-1.7,0.1-2.6,0c-0.4,0-0.7-0.1-1-0.3c-0.3-0.2-0.5-0.4-0.7-0.7c-0.2-0.3-0.3-0.7-0.3-1.2
					c0-0.8,0.3-1.4,0.8-1.9c0.6-0.4,1.5-0.6,2.7-0.6c0.3,0,0.7,0,1.2,0.1C222.4,51,222.7,51,222.9,51"/>
				<path class="st1" d="M248.7,47.4c-0.5-0.5-1.1-1-1.7-1.3c-0.6-0.4-1.4-0.7-2.2-1.1l-1.7-0.7c-0.4-0.2-0.8-0.3-1.2-0.5
					c-0.4-0.2-0.7-0.4-0.9-0.6c-0.3-0.2-0.5-0.5-0.6-0.8c-0.2-0.3-0.2-0.6-0.2-1c0-0.9,0.3-1.6,0.9-2.1c0.6-0.5,1.6-0.7,2.8-0.7
					c0.9,0,1.7,0.1,2.4,0.2c0.7,0.2,1.3,0.3,1.9,0.5l0.3,0.1l0.1-0.3c0.4-0.9,0.6-1.8,0.7-2.7l0-0.3l-0.3-0.1
					c-0.7-0.3-1.5-0.5-2.4-0.6c-0.9-0.2-1.9-0.3-2.9-0.3c-2.4,0-4.3,0.6-5.6,1.7c-1.4,1.1-2,2.7-2,4.7c0,0.8,0.1,1.5,0.3,2.1
					c0.2,0.6,0.5,1.1,0.9,1.6c0.4,0.5,0.8,0.9,1.4,1.2c0.5,0.3,1.1,0.6,1.7,0.8l1.7,0.7c0.7,0.3,1.3,0.5,1.8,0.8
					c0.5,0.2,0.9,0.5,1.2,0.8c0.3,0.3,0.5,0.6,0.7,0.9c0.2,0.4,0.2,0.8,0.2,1.3c0,1.1-0.4,1.9-1.1,2.5c-0.8,0.6-1.9,0.9-3.5,0.9
					c-1,0-1.9-0.1-2.6-0.3c-0.7-0.2-1.4-0.4-2.1-0.6l-0.3-0.1l-0.1,0.3c-0.2,0.4-0.3,0.9-0.5,1.4c-0.2,0.5-0.3,1-0.3,1.5l0,0.3
					l0.3,0.1c0.4,0.1,0.9,0.3,1.3,0.4c0.4,0.1,0.9,0.2,1.3,0.3c0.5,0.1,0.9,0.1,1.5,0.2c0.5,0,1.1,0.1,1.7,0.1
					c2.7,0,4.8-0.6,6.4-1.9c1.5-1.3,2.3-3.1,2.3-5.3c0-0.9-0.1-1.7-0.4-2.4C249.6,48.5,249.2,47.9,248.7,47.4"/>
				<path class="st1" d="M265.3,44.1c-0.7-0.8-1.5-1.4-2.4-1.9c-1-0.5-2.1-0.7-3.4-0.7c-1.3,0-2.4,0.2-3.4,0.7
					c-1,0.5-1.8,1.1-2.4,1.9c-0.6,0.8-1.1,1.7-1.4,2.7c-0.3,1-0.5,2.2-0.5,3.4c0,1.2,0.2,2.3,0.5,3.4c0.3,1,0.8,2,1.4,2.7
					c0.6,0.8,1.5,1.4,2.4,1.8c1,0.4,2.1,0.7,3.4,0.7c1.3,0,2.4-0.2,3.4-0.7c1-0.4,1.8-1.1,2.4-1.8c0.6-0.8,1.1-1.7,1.4-2.7
					c0.3-1,0.5-2.2,0.5-3.4c0-1.2-0.1-2.3-0.5-3.4C266.4,45.8,265.9,44.9,265.3,44.1 M259.4,55.7c-1.3,0-2.2-0.5-2.8-1.4
					c-0.6-1-0.9-2.3-0.9-4.1c0-1.7,0.3-3.1,0.9-4.1c0.6-0.9,1.5-1.4,2.8-1.4c1.3,0,2.2,0.4,2.8,1.4c0.6,0.9,1,2.3,1,4.1
					c0,1.7-0.3,3.1-1,4.1C261.7,55.2,260.7,55.7,259.4,55.7"/>
				<path class="st1" d="M281.5,56.3c-0.1-0.5-0.3-0.8-0.5-1.2l-0.2-0.3l-0.3,0.1c-0.5,0.2-1,0.3-1.5,0.4c-0.5,0.1-1.1,0.1-1.7,0.1
					c-1.4,0-2.5-0.4-3.4-1.3c-0.8-0.8-1.2-2.2-1.2-4.1c0-1.6,0.4-3,1.1-3.9c0.7-1,1.8-1.4,3.2-1.4c1.2,0,2.4,0.2,3.3,0.5l0.3,0.1
					l0.1-0.3c0.2-0.4,0.3-0.8,0.4-1.3c0.1-0.5,0.1-0.9,0.1-1.3v-0.3l-0.2-0.1c-0.6-0.2-1.3-0.4-2-0.5c-0.7-0.1-1.5-0.2-2.3-0.2
					c-1.3,0-2.5,0.2-3.5,0.7c-1,0.4-1.9,1.1-2.5,1.8c-0.7,0.8-1.2,1.7-1.5,2.7c-0.3,1-0.5,2.2-0.5,3.4c0,2.6,0.7,4.7,2.1,6.3
					c1.4,1.6,3.5,2.4,6.2,2.4c1.6,0,3-0.2,4.3-0.7l0.2-0.1l0-0.3C281.7,57.3,281.6,56.8,281.5,56.3"/>
				<path class="st1" d="M284.8,38.9l0,0.3l0.3,0c0.3,0,0.6,0.1,0.9,0.1c0.3,0,0.6,0,0.9,0c0.2,0,0.5,0,0.8,0c0.3,0,0.6-0.1,0.8-0.1
					l0.3,0l0-0.3c0-0.2,0.1-0.5,0.1-0.8c0-0.3,0-0.6,0-0.8c0-0.2,0-0.5,0-0.8c0-0.3,0-0.6-0.1-0.8l0-0.3l-0.3,0
					c-0.3,0-0.6-0.1-0.9-0.1c-0.3,0-0.6,0-0.8,0c-0.2,0-0.5,0-0.8,0c-0.3,0-0.6,0.1-0.9,0.1l-0.3,0l0,0.3c0,0.2-0.1,0.5-0.1,0.8
					c0,0.3,0,0.6,0,0.8c0,0.2,0,0.5,0,0.8C284.7,38.4,284.7,38.7,284.8,38.9"/>
				<path class="st1" d="M283.4,42.2c0,0.2-0.1,0.4-0.1,0.6c0,0.2,0,0.4,0,0.7c0,0.2,0,0.4,0,0.7c0,0.2,0.1,0.4,0.1,0.6l0.1,0.3h1.9
					v13.3l0.3,0.1c0.2,0,0.5,0.1,0.8,0.1c0.3,0,0.5,0,0.7,0c0.2,0,0.5,0,0.8,0c0.3,0,0.5-0.1,0.8-0.1l0.3-0.1V42h-5.6L283.4,42.2z"
					/>
				<path class="st1" d="M297.5,41.6c-0.8,0-1.6,0.1-2.5,0.2c-0.9,0.1-1.7,0.3-2.4,0.5l-0.3,0.1v0.3c0,1,0.2,1.9,0.6,2.6l0.1,0.3
					l0.3-0.1c0.6-0.2,1.2-0.3,1.8-0.4c0.6-0.1,1.3-0.2,1.9-0.2c1.1,0,1.9,0.2,2.4,0.6c0.5,0.4,0.8,1.1,0.8,2.2v0.2
					c-0.2,0-0.4,0-0.7-0.1c-0.4,0-1,0-1.6,0c-0.9,0-1.8,0.1-2.6,0.3c-0.8,0.2-1.6,0.6-2.2,1c-0.7,0.5-1.2,1.1-1.6,1.8
					c-0.4,0.7-0.6,1.6-0.6,2.5c0,1,0.2,1.8,0.5,2.5c0.3,0.7,0.8,1.3,1.4,1.7c0.6,0.4,1.3,0.8,2.2,1c0.8,0.2,1.8,0.3,2.8,0.3
					c1.1,0,2.2-0.1,3.2-0.3c1-0.2,1.9-0.3,2.6-0.5l0.3-0.1V47.8c0-2.1-0.6-3.7-1.7-4.7C301.3,42.1,299.7,41.6,297.5,41.6 M300.5,51
					v4.4c-0.3,0.1-0.6,0.1-1,0.2c-0.9,0.1-1.7,0.1-2.6,0c-0.4,0-0.7-0.1-1-0.3c-0.3-0.2-0.5-0.4-0.7-0.7c-0.2-0.3-0.3-0.7-0.3-1.2
					c0-0.8,0.3-1.4,0.8-1.9c0.6-0.4,1.5-0.6,2.7-0.6c0.3,0,0.7,0,1.2,0.1C300,51,300.2,51,300.5,51"/>
				<path class="st1" d="M313.6,55.7l-0.1-0.4l-0.4,0.1c-0.1,0-0.3,0.1-0.5,0.1c-0.5,0-0.9,0-1.3,0c-0.2,0-0.3-0.1-0.4-0.2
					c-0.1-0.1-0.2-0.3-0.3-0.6c-0.1-0.3-0.1-0.7-0.1-1.2V35.3l-0.3-0.1c-0.2,0-0.5-0.1-0.8-0.1c-0.3,0-0.6,0-0.8,0
					c-0.2,0-0.5,0-0.8,0c-0.3,0-0.6,0.1-0.8,0.1l-0.3,0.1V54c0,0.9,0.1,1.6,0.4,2.2c0.2,0.6,0.6,1.1,1,1.5c0.4,0.4,0.9,0.6,1.5,0.8
					c0.5,0.2,1.1,0.2,1.8,0.2c0.4,0,0.8,0,1.2,0c0.4,0,0.8-0.1,1.1-0.2l0.2-0.1v-0.3C313.9,57.2,313.8,56.4,313.6,55.7"/>
			</g>
			<g>
				<path class="st1" d="M85.2,76.5c0.3,0.1,0.6,0.2,0.9,0.3c0.3,0.1,0.7,0.1,1.2,0.1c0.7,0,1.3-0.2,1.7-0.5
					c0.4-0.3,0.5-0.7,0.5-1.2c0-0.3,0-0.5-0.1-0.6c-0.1-0.2-0.2-0.3-0.3-0.5s-0.3-0.3-0.6-0.4c-0.2-0.1-0.5-0.2-0.8-0.4l-0.8-0.3
					c-0.3-0.1-0.5-0.2-0.7-0.4c-0.2-0.1-0.4-0.3-0.6-0.5c-0.2-0.2-0.3-0.4-0.4-0.7c-0.1-0.2-0.1-0.5-0.1-0.9c0-0.8,0.3-1.5,0.8-1.9
					c0.6-0.5,1.3-0.7,2.4-0.7c0.4,0,0.8,0,1.2,0.1c0.4,0.1,0.7,0.2,1,0.3c0,0.4-0.1,0.8-0.3,1.1c-0.2-0.1-0.5-0.2-0.8-0.2
					c-0.3-0.1-0.7-0.1-1.1-0.1c-0.6,0-1,0.1-1.3,0.3c-0.3,0.2-0.5,0.6-0.5,1c0,0.2,0,0.4,0.1,0.5c0.1,0.1,0.2,0.3,0.3,0.4
					c0.1,0.1,0.3,0.2,0.4,0.3c0.2,0.1,0.4,0.2,0.5,0.2l0.8,0.3c0.4,0.1,0.7,0.3,1,0.5c0.3,0.2,0.5,0.3,0.7,0.6
					c0.2,0.2,0.3,0.5,0.5,0.8c0.1,0.3,0.2,0.6,0.2,1c0,0.9-0.3,1.7-1,2.2c-0.6,0.5-1.5,0.8-2.7,0.8c-0.3,0-0.5,0-0.8,0
					c-0.2,0-0.4,0-0.6-0.1c-0.2,0-0.4-0.1-0.6-0.1c-0.2-0.1-0.4-0.1-0.6-0.2c0-0.2,0.1-0.4,0.1-0.6C85.1,76.9,85.1,76.7,85.2,76.5z"
					/>
				<path class="st1" d="M93,71.1c0.1,0,0.2,0,0.3,0c0.1,0,0.2,0,0.3,0c0.1,0,0.2,0,0.3,0c0.1,0,0.2,0,0.3,0v3.8
					c0,0.4,0,0.8,0.1,1.1c0.1,0.3,0.2,0.5,0.4,0.7c0.2,0.2,0.4,0.3,0.6,0.3C95.7,77,96,77,96.3,77c0.5,0,0.9,0,1.2-0.1v-5.8
					c0.1,0,0.2,0,0.3,0c0.1,0,0.2,0,0.3,0c0.1,0,0.2,0,0.3,0c0.1,0,0.2,0,0.3,0v6.7c-0.3,0.1-0.7,0.2-1.1,0.3
					c-0.4,0.1-0.9,0.1-1.4,0.1c-0.4,0-0.9,0-1.3-0.1s-0.7-0.2-1-0.5c-0.3-0.2-0.5-0.6-0.7-1c-0.2-0.4-0.3-1-0.3-1.7V71.1z"/>
				<path class="st1" d="M104.9,68.1c0.1,0,0.2,0,0.3,0c0.1,0,0.2,0,0.3,0c0.1,0,0.2,0,0.3,0c0.1,0,0.2,0,0.3,0v3.8
					c0.2-0.3,0.4-0.5,0.8-0.7c0.3-0.2,0.8-0.3,1.2-0.3c0.4,0,0.8,0.1,1.2,0.2c0.4,0.1,0.7,0.3,0.9,0.6c0.3,0.3,0.4,0.6,0.6,1.1
					c0.1,0.4,0.2,1,0.2,1.5c0,1.2-0.3,2.1-1,2.8c-0.7,0.7-1.6,1-2.9,1c-0.4,0-0.8,0-1.2-0.1c-0.4-0.1-0.8-0.2-1.1-0.3V68.1z
					 M106.2,76.9c0.2,0.1,0.3,0.1,0.5,0.1c0.2,0,0.4,0,0.6,0c0.3,0,0.6-0.1,0.9-0.2c0.3-0.1,0.5-0.3,0.7-0.5
					c0.2-0.2,0.4-0.5,0.5-0.8c0.1-0.3,0.2-0.7,0.2-1.2c0-0.7-0.1-1.3-0.4-1.7c-0.3-0.4-0.7-0.6-1.3-0.6c-0.2,0-0.4,0-0.6,0.1
					c-0.2,0.1-0.4,0.2-0.6,0.3c-0.2,0.1-0.3,0.3-0.4,0.6c-0.1,0.2-0.2,0.5-0.2,0.9V76.9z"/>
				<path class="st1" d="M116.7,73.4c0-0.5-0.1-0.9-0.4-1.1c-0.3-0.2-0.7-0.3-1.2-0.3c-0.3,0-0.6,0-0.9,0.1c-0.3,0-0.5,0.1-0.8,0.2
					c-0.2-0.3-0.3-0.7-0.3-1.1c0.3-0.1,0.6-0.2,1-0.2c0.4-0.1,0.7-0.1,1.1-0.1c0.9,0,1.6,0.2,2.1,0.6c0.5,0.4,0.7,1.1,0.7,2v4.3
					c-0.3,0.1-0.7,0.1-1.2,0.2c-0.5,0.1-0.9,0.1-1.4,0.1c-0.4,0-0.8,0-1.2-0.1c-0.4-0.1-0.7-0.2-0.9-0.4c-0.2-0.2-0.4-0.4-0.6-0.7
					c-0.1-0.3-0.2-0.6-0.2-1c0-0.4,0.1-0.7,0.2-1c0.2-0.3,0.4-0.5,0.6-0.7c0.3-0.2,0.6-0.3,0.9-0.4c0.4-0.1,0.7-0.1,1.1-0.1
					c0.3,0,0.5,0,0.7,0c0.2,0,0.3,0,0.5,0V73.4z M116.7,74.7c-0.1,0-0.3,0-0.5-0.1c-0.2,0-0.4,0-0.5,0c-0.6,0-1,0.1-1.3,0.3
					c-0.3,0.2-0.4,0.5-0.4,0.9c0,0.3,0,0.5,0.1,0.6c0.1,0.2,0.2,0.3,0.4,0.4c0.1,0.1,0.3,0.1,0.5,0.1c0.2,0,0.4,0,0.5,0
					c0.2,0,0.4,0,0.6,0c0.2,0,0.4-0.1,0.6-0.1V74.7z"/>
				<path class="st1" d="M120.2,71.1c0.1,0,0.2,0,0.3,0c0.1,0,0.2,0,0.3,0c0.1,0,0.2,0,0.3,0c0.1,0,0.2,0,0.3,0
					c0,0.1,0.1,0.3,0.1,0.5c0,0.2,0,0.4,0,0.6c0.1-0.2,0.2-0.3,0.3-0.5c0.1-0.2,0.3-0.3,0.5-0.4c0.2-0.1,0.4-0.2,0.6-0.3
					c0.2-0.1,0.5-0.1,0.8-0.1c0.8,0,1.4,0.2,1.8,0.7s0.6,1.1,0.6,2V78c-0.1,0-0.2,0-0.3,0c-0.1,0-0.2,0-0.3,0c-0.1,0-0.2,0-0.3,0
					c-0.1,0-0.2,0-0.3,0v-4c0-0.6-0.1-1.1-0.3-1.4c-0.2-0.3-0.5-0.5-0.9-0.5c-0.3,0-0.5,0-0.7,0.1c-0.2,0.1-0.4,0.2-0.6,0.4
					c-0.2,0.2-0.3,0.4-0.4,0.7c-0.1,0.3-0.2,0.7-0.2,1.1V78c-0.1,0-0.2,0-0.3,0c-0.1,0-0.2,0-0.3,0c-0.1,0-0.2,0-0.3,0
					c-0.1,0-0.2,0-0.3,0V71.1z"/>
				<path class="st1" d="M133.3,76.8c0.1,0.1,0.1,0.3,0.2,0.5c0.1,0.2,0.1,0.4,0.1,0.6c-0.5,0.2-1.1,0.3-1.8,0.3c-1.2,0-2-0.3-2.6-1
					c-0.6-0.7-0.9-1.5-0.9-2.6c0-0.5,0.1-1,0.2-1.4c0.1-0.4,0.4-0.8,0.6-1.2c0.3-0.3,0.6-0.6,1.1-0.8c0.4-0.2,0.9-0.3,1.5-0.3
					c0.4,0,0.7,0,1,0.1c0.3,0,0.6,0.1,0.8,0.2c0,0.2,0,0.3-0.1,0.5c0,0.2-0.1,0.4-0.2,0.5c-0.4-0.2-0.9-0.2-1.5-0.2
					c-0.7,0-1.2,0.2-1.6,0.7c-0.3,0.5-0.5,1.1-0.5,1.8c0,0.9,0.2,1.5,0.6,1.9c0.4,0.4,0.9,0.6,1.6,0.6c0.3,0,0.5,0,0.8-0.1
					C132.8,77,133,76.9,133.3,76.8z"/>
				<path class="st1" d="M138.1,78.2c-0.5,0-1-0.1-1.4-0.3c-0.4-0.2-0.7-0.4-1-0.8c-0.3-0.3-0.5-0.7-0.6-1.2
					c-0.1-0.4-0.2-0.9-0.2-1.4c0-0.5,0.1-1,0.2-1.4c0.1-0.4,0.3-0.8,0.6-1.2c0.3-0.3,0.6-0.6,1-0.8c0.4-0.2,0.9-0.3,1.4-0.3
					c0.5,0,1,0.1,1.4,0.3c0.4,0.2,0.7,0.4,1,0.8c0.3,0.3,0.5,0.7,0.6,1.2c0.1,0.4,0.2,0.9,0.2,1.4c0,0.5-0.1,1-0.2,1.4
					c-0.1,0.4-0.3,0.8-0.6,1.2c-0.3,0.3-0.6,0.6-1,0.8C139.1,78.1,138.7,78.2,138.1,78.2z M138.1,77.1c0.6,0,1.1-0.2,1.4-0.7
					c0.3-0.5,0.4-1.1,0.4-1.9c0-0.8-0.1-1.4-0.4-1.9c-0.3-0.4-0.8-0.7-1.4-0.7c-0.6,0-1.1,0.2-1.4,0.7c-0.3,0.4-0.4,1.1-0.4,1.9
					c0,0.8,0.1,1.4,0.4,1.9C137.1,76.9,137.5,77.1,138.1,77.1z"/>
				<path class="st1" d="M150.8,73.4c0-0.5-0.1-0.9-0.4-1.1c-0.3-0.2-0.7-0.3-1.2-0.3c-0.3,0-0.6,0-0.9,0.1c-0.3,0-0.5,0.1-0.8,0.2
					c-0.2-0.3-0.3-0.7-0.3-1.1c0.3-0.1,0.6-0.2,1-0.2c0.4-0.1,0.7-0.1,1.1-0.1c0.9,0,1.6,0.2,2.1,0.6c0.5,0.4,0.7,1.1,0.7,2v4.3
					c-0.3,0.1-0.7,0.1-1.2,0.2c-0.5,0.1-0.9,0.1-1.4,0.1c-0.4,0-0.8,0-1.2-0.1c-0.4-0.1-0.7-0.2-0.9-0.4c-0.2-0.2-0.4-0.4-0.6-0.7
					c-0.1-0.3-0.2-0.6-0.2-1c0-0.4,0.1-0.7,0.2-1c0.2-0.3,0.4-0.5,0.6-0.7c0.3-0.2,0.6-0.3,0.9-0.4c0.4-0.1,0.7-0.1,1.1-0.1
					c0.3,0,0.5,0,0.7,0c0.2,0,0.3,0,0.5,0V73.4z M150.8,74.7c-0.1,0-0.3,0-0.5-0.1c-0.2,0-0.4,0-0.5,0c-0.6,0-1,0.1-1.3,0.3
					c-0.3,0.2-0.4,0.5-0.4,0.9c0,0.3,0,0.5,0.1,0.6c0.1,0.2,0.2,0.3,0.4,0.4c0.1,0.1,0.3,0.1,0.5,0.1c0.2,0,0.4,0,0.5,0
					c0.2,0,0.4,0,0.6,0c0.2,0,0.4-0.1,0.6-0.1V74.7z"/>
				<path class="st1" d="M154.5,71.1c0.1,0,0.2,0,0.3,0c0.1,0,0.2,0,0.3,0c0.1,0,0.2,0,0.3,0c0.1,0,0.2,0,0.3,0
					c0,0.1,0.1,0.3,0.1,0.5s0,0.4,0,0.6c0.1-0.2,0.2-0.3,0.3-0.5c0.1-0.1,0.3-0.3,0.4-0.4c0.2-0.1,0.4-0.2,0.6-0.3
					c0.2-0.1,0.5-0.1,0.7-0.1c0.5,0,1,0.1,1.3,0.3c0.3,0.2,0.5,0.5,0.7,0.9c0.1-0.2,0.2-0.3,0.3-0.5c0.1-0.2,0.3-0.3,0.4-0.4
					c0.2-0.1,0.3-0.2,0.6-0.3c0.2-0.1,0.4-0.1,0.7-0.1c0.8,0,1.4,0.2,1.8,0.7c0.4,0.5,0.5,1.1,0.5,2V78c-0.1,0-0.2,0-0.3,0
					c-0.1,0-0.2,0-0.3,0c-0.1,0-0.2,0-0.3,0c-0.1,0-0.2,0-0.3,0v-4c0-0.6-0.1-1.1-0.3-1.4c-0.2-0.3-0.5-0.5-0.9-0.5
					c-0.5,0-0.8,0.2-1.1,0.5c-0.3,0.3-0.4,0.8-0.4,1.5V78c-0.1,0-0.2,0-0.3,0c-0.1,0-0.2,0-0.3,0s-0.2,0-0.3,0c-0.1,0-0.2,0-0.3,0
					v-4.1c0-0.6-0.1-1.1-0.3-1.4c-0.2-0.3-0.5-0.5-0.9-0.5c-0.2,0-0.4,0.1-0.6,0.1c-0.2,0.1-0.4,0.2-0.5,0.4
					c-0.1,0.2-0.3,0.4-0.4,0.8c-0.1,0.3-0.1,0.7-0.1,1V78c-0.1,0-0.2,0-0.3,0c-0.1,0-0.2,0-0.3,0c-0.1,0-0.2,0-0.3,0
					c-0.1,0-0.2,0-0.3,0V71.1z"/>
				<path class="st1" d="M166.9,72.1H166c0-0.1,0-0.2,0-0.3c0-0.1,0-0.2,0-0.3c0-0.1,0-0.2,0-0.3c0-0.1,0-0.2,0-0.3h2.2V78
					c-0.1,0-0.2,0-0.3,0c-0.1,0-0.2,0-0.3,0c-0.1,0-0.2,0-0.3,0c-0.1,0-0.2,0-0.3,0V72.1z M166.6,69.5c0-0.1,0-0.2,0-0.4
					c0-0.1,0-0.2,0-0.3c0-0.1,0-0.2,0-0.3c0-0.1,0-0.2,0-0.3c0.1,0,0.2,0,0.4,0c0.1,0,0.3,0,0.4,0c0.1,0,0.2,0,0.4,0
					c0.1,0,0.3,0,0.4,0c0,0.1,0,0.2,0,0.3c0,0.1,0,0.2,0,0.3c0,0.1,0,0.2,0,0.3c0,0.1,0,0.2,0,0.4c-0.1,0-0.2,0-0.4,0
					c-0.1,0-0.2,0-0.3,0c-0.1,0-0.2,0-0.4,0C166.9,69.6,166.7,69.5,166.6,69.5z"/>
				<path class="st1" d="M174.5,77.1c0.8,0,1.4,0.2,1.7,0.5c0.4,0.3,0.5,0.8,0.5,1.3c0,0.4-0.1,0.7-0.3,1c-0.2,0.3-0.5,0.5-0.8,0.8
					c-0.3,0.2-0.7,0.4-1.2,0.5c-0.5,0.1-0.9,0.2-1.5,0.2c-0.9,0-1.6-0.1-2.1-0.4s-0.7-0.7-0.7-1.4c0-0.4,0.1-0.7,0.3-1
					c0.2-0.3,0.5-0.5,0.8-0.7c-0.2-0.1-0.3-0.3-0.5-0.4c-0.1-0.2-0.2-0.4-0.2-0.7c0-0.3,0.1-0.6,0.2-0.9c0.1-0.2,0.3-0.5,0.6-0.6
					c-0.3-0.2-0.5-0.5-0.7-0.8c-0.2-0.3-0.3-0.7-0.3-1.1c0-0.3,0.1-0.7,0.2-1c0.1-0.3,0.3-0.6,0.5-0.8c0.2-0.2,0.5-0.4,0.9-0.5
					c0.4-0.1,0.8-0.2,1.2-0.2c0.4,0,0.8,0.1,1.1,0.2c0.3,0.1,0.6,0.3,0.8,0.4c0.2-0.1,0.4-0.3,0.7-0.4c0.3-0.1,0.6-0.1,1-0.1
					c0,0.2,0.1,0.4,0.1,0.6c0,0.1,0,0.2,0,0.3c0,0.1,0,0.2,0,0.3h-1.2c0.1,0.2,0.2,0.3,0.2,0.5c0.1,0.2,0.1,0.4,0.1,0.6
					c0,0.4-0.1,0.7-0.2,1c-0.1,0.3-0.3,0.6-0.6,0.8c-0.2,0.2-0.5,0.4-0.9,0.5c-0.3,0.1-0.7,0.2-1.1,0.2c-0.4,0-0.7,0-1-0.1
					c-0.1,0.1-0.3,0.2-0.4,0.3c-0.1,0.1-0.2,0.3-0.2,0.5c0,0.2,0.1,0.3,0.2,0.4c0.1,0.1,0.4,0.2,0.8,0.2L174.5,77.1z M172.7,78.2
					c-0.4,0-0.7,0.1-0.9,0.3c-0.2,0.2-0.3,0.5-0.3,0.8c0,0.2,0,0.4,0.1,0.5c0.1,0.1,0.2,0.2,0.3,0.3c0.1,0.1,0.3,0.1,0.5,0.2
					c0.2,0,0.4,0,0.7,0c0.7,0,1.3-0.1,1.7-0.4c0.4-0.2,0.6-0.5,0.6-0.9c0-0.3-0.1-0.5-0.3-0.6c-0.2-0.1-0.5-0.2-0.9-0.2L172.7,78.2z
					 M173.3,74.8c0.5,0,0.8-0.1,1.1-0.4c0.2-0.3,0.4-0.6,0.4-1c0-0.4-0.1-0.8-0.4-1.1c-0.2-0.3-0.6-0.4-1.1-0.4
					c-0.5,0-0.8,0.1-1.1,0.4c-0.2,0.3-0.3,0.6-0.3,1.1c0,0.4,0.1,0.8,0.3,1C172.5,74.7,172.8,74.8,173.3,74.8z"/>
				<path class="st1" d="M181.4,78.2c-0.5,0-1-0.1-1.4-0.3c-0.4-0.2-0.7-0.4-1-0.8c-0.3-0.3-0.5-0.7-0.6-1.2
					c-0.1-0.4-0.2-0.9-0.2-1.4c0-0.5,0.1-1,0.2-1.4c0.1-0.4,0.3-0.8,0.6-1.2c0.3-0.3,0.6-0.6,1-0.8c0.4-0.2,0.9-0.3,1.4-0.3
					c0.5,0,1,0.1,1.4,0.3c0.4,0.2,0.7,0.4,1,0.8c0.3,0.3,0.5,0.7,0.6,1.2c0.1,0.4,0.2,0.9,0.2,1.4c0,0.5-0.1,1-0.2,1.4
					c-0.1,0.4-0.3,0.8-0.6,1.2c-0.3,0.3-0.6,0.6-1,0.8C182.4,78.1,181.9,78.2,181.4,78.2z M181.4,77.1c0.6,0,1.1-0.2,1.4-0.7
					c0.3-0.5,0.4-1.1,0.4-1.9c0-0.8-0.1-1.4-0.4-1.9c-0.3-0.4-0.8-0.7-1.4-0.7c-0.6,0-1.1,0.2-1.4,0.7c-0.3,0.4-0.4,1.1-0.4,1.9
					c0,0.8,0.1,1.4,0.4,1.9C180.3,76.9,180.8,77.1,181.4,77.1z"/>
				<path class="st1" d="M186.5,78c0-0.1,0-0.3,0-0.4c0-0.1,0-0.2,0-0.4c0-0.1,0-0.3,0-0.4c0-0.1,0-0.3,0-0.4c0.1,0,0.2,0,0.4,0
					c0.1,0,0.2,0,0.4,0c0.1,0,0.3,0,0.4,0c0.1,0,0.3,0,0.4,0c0,0.1,0,0.3,0,0.4c0,0.1,0,0.3,0,0.4c0,0.1,0,0.3,0,0.4
					c0,0.1,0,0.3,0,0.4c-0.1,0-0.2,0-0.4,0c-0.1,0-0.2,0-0.4,0c-0.1,0-0.3,0-0.4,0C186.8,78,186.6,78,186.5,78z"/>
			</g>
		</g>
		<g>
			<g>
				<g>
					<path class="st2" d="M90.4,88.8c-0.3,0-0.6-0.3-0.6-0.6c0-0.3,0.2-0.7,0.6-0.7c0.4,0,43.2-2.8,60.4-2.5
						c17.1,0.3,24.3,0.6,24.4,0.6c0.4,0,0.6,0.3,0.6,0.7c0,0.4-0.3,0.6-0.7,0.6c-0.1,0-7.2-0.3-24.4-0.6
						C133.6,86,90.9,88.8,90.4,88.8C90.4,88.8,90.4,88.8,90.4,88.8z"/>
				</g>
				<g>
					<path class="st2" d="M183,87C183,87,183,87,183,87l-4.3-0.2c-0.4,0-0.6-0.3-0.6-0.7c0-0.3,0.3-0.6,0.7-0.6l4.3,0.2
						c0.4,0,0.6,0.3,0.6,0.7C183.6,86.8,183.4,87,183,87z"/>
				</g>
				<g>
					<path class="st2" d="M186.6,87.3C186.6,87.3,186.6,87.3,186.6,87.3l-1.3-0.1c-0.3,0-0.6-0.3-0.6-0.7c0-0.3,0.3-0.6,0.7-0.6
						l1.3,0.1c0.3,0,0.6,0.3,0.6,0.7C187.2,87,186.9,87.3,186.6,87.3z"/>
				</g>
			</g>
		</g>
		<g>
			<g>
				<path class="st3" d="M90.4,88.8c-0.3,0-0.6-0.3-0.6-0.6c0-0.4,0.2-0.7,0.6-0.7c0.4,0,43.2-2.8,60.4-2.5
					c17.1,0.3,24.3,0.6,24.4,0.6c0.4,0,0.6,0.3,0.6,0.7c0,0.4-0.3,0.6-0.7,0.6c-0.1,0-7.2-0.3-24.4-0.6
					C133.6,86,90.8,88.8,90.4,88.8C90.4,88.8,90.4,88.8,90.4,88.8z"/>
			</g>
			<g>
				<path class="st3" d="M183,87C183,87,183,87,183,87l-4.3-0.2c-0.4,0-0.6-0.3-0.6-0.7c0-0.3,0.3-0.6,0.7-0.6l4.3,0.2
					c0.4,0,0.6,0.3,0.6,0.7C183.6,86.8,183.4,87,183,87z"/>
			</g>
			<g>
				<path class="st3" d="M186.6,87.3C186.6,87.3,186.6,87.3,186.6,87.3l-1.3-0.1c-0.3,0-0.6-0.3-0.6-0.7c0-0.3,0.3-0.6,0.7-0.6
					l1.3,0.1c0.3,0,0.6,0.3,0.6,0.7C187.2,87,186.9,87.3,186.6,87.3z"/>
			</g>
		</g>
	</g>
	<g>
		<rect x="359.7" y="28.4" class="st1" width="55.8" height="50.7"/>
		<rect x="359.7" y="15.7" class="st4" width="55.8" height="12.7"/>
		<g>
			<path class="st1" d="M368.5,19.2h-0.3c0,0-0.1,0-0.1,0.1v4.2c0,0.1,0,0.3,0,0.4c0,0.1-0.1,0.2-0.1,0.3c-0.1,0.1-0.1,0.1-0.2,0.2
				c-0.1,0-0.2,0.1-0.3,0.1c-0.1,0-0.3,0-0.3-0.1c-0.1,0-0.2-0.1-0.2-0.2c-0.1-0.1-0.1-0.2-0.1-0.3c0-0.1,0-0.3,0-0.4v-4.2
				c0,0,0-0.1-0.1-0.1h-0.4c0,0-0.1,0-0.1,0.1v4.2c0,0.2,0,0.4,0.1,0.6c0,0.2,0.1,0.3,0.2,0.5c0.1,0.1,0.2,0.2,0.4,0.3
				c0.2,0.1,0.4,0.1,0.6,0.1c0.2,0,0.4,0,0.6-0.1c0.2-0.1,0.3-0.2,0.4-0.3c0.1-0.1,0.2-0.3,0.2-0.5c0-0.2,0.1-0.4,0.1-0.6
				L368.5,19.2C368.6,19.2,368.5,19.2,368.5,19.2z"/>
			<path class="st1" d="M371.9,19.2h-0.3c0,0-0.1,0-0.1,0.1v4.2l-1.5-4.2c0,0,0-0.1-0.1-0.1h-0.5c0,0-0.1,0-0.1,0.1v5.5
				c0,0,0,0.1,0.1,0.1h0.3c0,0,0.1,0,0.1-0.1v-4.4l1.6,4.5c0,0,0,0.1,0.1,0.1h0.4c0,0,0.1,0,0.1-0.1L371.9,19.2
				C372,19.2,371.9,19.2,371.9,19.2z"/>
			<path class="st1" d="M374.5,19.2h-0.5c0,0-0.1,0-0.1,0.1l-1.2,5.5c0,0,0,0,0,0.1c0,0,0,0,0.1,0h0.3c0,0,0.1,0,0.1-0.1l0.3-1.2
				h1.6l0.3,1.2c0,0,0,0.1,0.1,0.1h0.4c0,0,0,0,0.1,0c0,0,0,0,0-0.1L374.5,19.2C374.5,19.2,374.5,19.2,374.5,19.2z M374.9,23.2h-1.4
				l0.7-3.1L374.9,23.2z"/>
			<path class="st1" d="M380.3,19.2h-2.2c0,0-0.1,0-0.1,0.1v5.5c0,0,0,0.1,0.1,0.1h2.2c0,0,0.1,0,0.1-0.1v-0.3c0,0,0-0.1-0.1-0.1
				h-1.7v-2.1h1.4c0,0,0.1,0,0.1-0.1v-0.3c0,0,0-0.1-0.1-0.1h-1.4v-2.1h1.7c0,0,0.1,0,0.1-0.1L380.3,19.2
				C380.3,19.2,380.3,19.2,380.3,19.2z"/>
			<path class="st1" d="M384.5,19.2H384c0,0-0.1,0-0.1,0.1l-1.1,4.5l-1.1-4.5c0,0,0-0.1-0.1-0.1h-0.5c0,0-0.1,0-0.1,0.1v5.5
				c0,0,0,0.1,0.1,0.1h0.3c0,0,0.1,0,0.1-0.1v-4.2l1,4.2c0,0,0,0.1,0.1,0.1h0.4c0,0,0.1,0,0.1-0.1l1-4.2v4.2c0,0,0,0.1,0.1,0.1h0.3
				c0,0,0.1,0,0.1-0.1L384.5,19.2C384.6,19.2,384.6,19.2,384.5,19.2z"/>
			<path class="st1" d="M386.6,19.2h-1.1c0,0-0.1,0-0.1,0.1v5.5c0,0,0,0.1,0.1,0.1h0.4c0,0,0.1,0,0.1-0.1v-2.2h0.6
				c0.5,0,0.8-0.1,1-0.3c0.2-0.2,0.3-0.6,0.3-1v-0.6c0-0.4-0.1-0.8-0.3-1C387.4,19.3,387,19.2,386.6,19.2z M386.5,22.1h-0.6v-2.4
				h0.7c0.3,0,0.5,0.1,0.6,0.2c0.1,0.2,0.2,0.4,0.2,0.7v0.6c0,0.3-0.1,0.5-0.2,0.7C387,22,386.8,22.1,386.5,22.1z"/>
			<path class="st1" d="M391.1,24.5c0-0.1,0-0.2,0-0.3v-0.9c0-0.3-0.1-0.6-0.2-0.8c-0.1-0.2-0.2-0.3-0.4-0.3
				c0.4-0.2,0.6-0.6,0.6-1.1v-0.5c0-0.4-0.1-0.7-0.3-1c-0.2-0.2-0.5-0.4-1-0.4h-1.1c0,0-0.1,0-0.1,0.1v5.5c0,0,0,0.1,0.1,0.1h0.4
				c0,0,0.1,0,0.1-0.1v-2.4h0.5c0.2,0,0.3,0,0.4,0c0.1,0,0.2,0.1,0.3,0.1c0.1,0.1,0.1,0.1,0.2,0.3c0,0.1,0.1,0.3,0.1,0.4v0.9
				c0,0.2,0,0.3,0,0.4c0,0.1,0.1,0.2,0.1,0.3c0,0,0,0,0.1,0h0.4c0,0,0.1,0,0.1,0c0,0,0-0.1,0-0.1C391.1,24.7,391.1,24.6,391.1,24.5z
				 M389.1,19.7h0.7c0.3,0,0.5,0.1,0.6,0.2c0.1,0.2,0.2,0.4,0.2,0.6v0.5c0,0.2,0,0.3-0.1,0.4c0,0.1-0.1,0.2-0.2,0.2
				c-0.1,0.1-0.2,0.1-0.3,0.1c-0.1,0-0.3,0-0.4,0h-0.5V19.7z"/>
			<path class="st1" d="M394.2,19.2H392c0,0-0.1,0-0.1,0.1v5.5c0,0,0,0.1,0.1,0.1h2.2c0,0,0.1,0,0.1-0.1v-0.3c0,0,0-0.1-0.1-0.1
				h-1.7v-2.1h1.4c0,0,0.1,0,0.1-0.1v-0.3c0,0,0-0.1-0.1-0.1h-1.4v-2.1h1.7c0,0,0.1,0,0.1-0.1L394.2,19.2
				C394.2,19.2,394.2,19.2,394.2,19.2z"/>
			<path class="st1" d="M396.9,22.3c-0.2-0.1-0.3-0.3-0.5-0.4c-0.2-0.1-0.3-0.2-0.5-0.4c-0.1-0.1-0.3-0.3-0.4-0.4
				c-0.1-0.1-0.1-0.3-0.1-0.5c0-0.3,0.1-0.5,0.2-0.7c0.1-0.2,0.3-0.2,0.6-0.2c0.1,0,0.2,0,0.3,0.1c0.1,0,0.2,0.1,0.2,0.2
				c0.1,0.1,0.1,0.2,0.1,0.3c0,0.1,0,0.2,0,0.4v0.1c0,0,0,0.1,0.1,0.1h0.3c0,0,0.1,0,0.1-0.1v-0.1c0-0.2,0-0.4-0.1-0.6
				c0-0.2-0.1-0.3-0.2-0.5c-0.1-0.1-0.2-0.2-0.4-0.3c-0.2-0.1-0.3-0.1-0.6-0.1c0,0,0,0,0,0c-0.4,0-0.8,0.1-1,0.4
				c-0.2,0.3-0.3,0.6-0.3,1c0,0.3,0.1,0.5,0.2,0.7c0.1,0.2,0.2,0.4,0.4,0.5c0.2,0.1,0.3,0.3,0.5,0.4c0.2,0.1,0.3,0.2,0.5,0.4
				c0.1,0.1,0.3,0.3,0.4,0.4c0.1,0.1,0.1,0.3,0.1,0.5c0,0.3-0.1,0.5-0.2,0.7c-0.1,0.2-0.3,0.3-0.6,0.3c-0.3,0-0.5-0.1-0.6-0.3
				c-0.1-0.2-0.2-0.4-0.2-0.7v-0.3c0,0,0-0.1-0.1-0.1H395c0,0-0.1,0-0.1,0.1v0.3c0,0.2,0,0.4,0.1,0.6c0,0.2,0.1,0.3,0.2,0.5
				c0.1,0.1,0.2,0.2,0.4,0.3c0.2,0.1,0.4,0.1,0.6,0.1c0.2,0,0.4,0,0.6-0.1c0.2-0.1,0.3-0.2,0.4-0.3c0.1-0.1,0.2-0.3,0.2-0.5
				c0-0.2,0.1-0.4,0.1-0.6c0-0.3-0.1-0.5-0.2-0.7C397.2,22.6,397.1,22.4,396.9,22.3z"/>
			<path class="st1" d="M399.9,19.2h-0.5c0,0-0.1,0-0.1,0.1l-1.2,5.5c0,0,0,0,0,0.1c0,0,0,0,0.1,0h0.3c0,0,0.1,0,0.1-0.1l0.3-1.2
				h1.6l0.3,1.2c0,0,0,0.1,0.1,0.1h0.4c0,0,0,0,0.1,0c0,0,0,0,0-0.1L399.9,19.2C400,19.2,400,19.2,399.9,19.2z M400.4,23.2H399
				l0.7-3.1L400.4,23.2z"/>
			<path class="st1" d="M405.8,19.6c-0.1-0.1-0.2-0.2-0.4-0.3c-0.2-0.1-0.4-0.1-0.6-0.1h-1.2c0,0-0.1,0-0.1,0.1v5.5
				c0,0,0,0.1,0.1,0.1h1.2c0.2,0,0.4,0,0.6-0.1c0.2-0.1,0.3-0.2,0.4-0.3c0.1-0.1,0.2-0.3,0.2-0.5c0-0.2,0.1-0.4,0.1-0.6v-2.8
				c0-0.2,0-0.4-0.1-0.6C405.9,19.9,405.9,19.7,405.8,19.6z M405.5,20.6v2.8c0,0.3-0.1,0.5-0.2,0.7c-0.1,0.2-0.3,0.2-0.6,0.2H404
				v-4.7h0.8c0.3,0,0.5,0.1,0.6,0.2C405.5,20.1,405.5,20.3,405.5,20.6z"/>
			<path class="st1" d="M409.1,19.7C409.1,19.7,409.2,19.7,409.1,19.7l0.1-0.4c0,0,0-0.1-0.1-0.1h-2.2c0,0-0.1,0-0.1,0.1v5.5
				c0,0,0,0.1,0.1,0.1h2.2c0,0,0.1,0,0.1-0.1v-0.3c0,0,0-0.1-0.1-0.1h-1.7v-2.1h1.4c0,0,0.1,0,0.1-0.1v-0.3c0,0,0-0.1-0.1-0.1h-1.4
				v-2.1H409.1z"/>
		</g>
		<g>
			<g>
				<path class="st4" d="M382.7,33.2c-0.2,0-0.5,0.1-0.6,0.3l-5.9,10c-0.1,0.2-0.1,0.5,0,0.7l5.8,9.8c0.1,0.2,0.3,0.3,0.6,0.3
					l11.4,0c0.2,0,0.5-0.1,0.6-0.3l4-7.1c0.1-0.2,0.1-0.5,0-0.7l-5.7-9.8c-0.1-0.2-0.3-0.3-0.6-0.3l-8,0c-0.2,0-0.5,0.1-0.6,0.3
					l-4.2,7.1c-0.1,0.2-0.1,0.5,0,0.7l4.1,6.9c0.1,0.2,0.3,0.3,0.6,0.3l8.1,0c0.2,0,0.5-0.1,0.6-0.3l1.9-3.4l0,0l0.7-1.2l-1.2-1.9
					l-0.5,0.9l0,0l-2,3.6c-0.1,0.2-0.3,0.3-0.6,0.3l-5.8,0c-0.2,0-0.5-0.1-0.6-0.3l-2.9-5c-0.1-0.2-0.1-0.5,0-0.7l3-5.2
					c0.1-0.2,0.3-0.3,0.6-0.3h5.7c0.2,0,0.5,0.1,0.6,0.3l4.5,7.9c0.1,0.2,0.1,0.5,0,0.7l-2.9,5.2c-0.1,0.2-0.3,0.3-0.6,0.3h-9.1
					c-0.2,0-0.5-0.1-0.6-0.3l-4.6-7.9c-0.1-0.2-0.1-0.5,0-0.7l4.7-8.1c0.1-0.2,0.3-0.3,0.6-0.3h9c0.2,0,0.5,0.1,0.6,0.3l3.6,6.4l0,0
					l0.6,1l1.2-2v0l-0.2-0.3l0,0l-0.5-0.9l-0.2-0.4l0,0l-3.2-5.6c-0.1-0.2-0.3-0.3-0.6-0.3L382.7,33.2z"/>
			</g>
			<g>
				<polygon class="st4" points="371.5,61.4 373,61.4 373,62.4 371.5,62.4 371.5,65.4 370.3,65.4 370.3,58.1 373.4,58.1 373.4,59.2 
					371.5,59.2 				"/>
			</g>
			<g>
				<g>
					<path class="st4" d="M375,58.1v5.6c0,0.3,0.1,0.4,0.2,0.6c0.1,0.1,0.3,0.2,0.4,0.2c0.2,0,0.3-0.1,0.4-0.2
						c0.1-0.1,0.2-0.3,0.2-0.6v-5.6h1.1v5.5c0,0.6-0.1,1-0.4,1.4c-0.3,0.3-0.7,0.5-1.3,0.5s-1-0.2-1.3-0.5c-0.3-0.3-0.4-0.8-0.4-1.4
						v-5.5H375z"/>
				</g>
			</g>
			<g>
				<polygon class="st4" points="379.1,60.1 379.1,65.4 378,65.4 378,58.1 379.5,58.1 380.6,62.5 380.6,58.1 381.7,58.1 381.7,65.4 
					380.5,65.4 				"/>
			</g>
			<g>
				<g>
					<path class="st4" d="M383.6,59.2v5.2h0.6c0.2,0,0.3-0.1,0.4-0.2c0.1-0.1,0.2-0.3,0.2-0.6v-3.8c0-0.3-0.1-0.4-0.2-0.6
						c-0.1-0.1-0.2-0.2-0.4-0.2H383.6z M382.5,58.1h1.8c0.6,0,1,0.2,1.3,0.5c0.3,0.3,0.4,0.8,0.4,1.3v3.7c0,0.6-0.1,1-0.4,1.3
						c-0.3,0.3-0.7,0.5-1.3,0.5h-1.8V58.1z"/>
				</g>
			</g>
			<g>
				<path class="st4" d="M387.8,63.1h1.1l-0.6-3.7L387.8,63.1z M390.4,65.4h-1.2l-0.2-1.3h-1.4l-0.2,1.3h-1l1.2-7.3h1.7L390.4,65.4z
					"/>
			</g>
			<g>
				<g>
					<path class="st4" d="M394.3,62.7v1c0,0.6-0.1,1-0.4,1.4c-0.3,0.3-0.7,0.5-1.3,0.5c-0.6,0-1-0.2-1.3-0.5
						c-0.3-0.3-0.4-0.8-0.4-1.4v-3.8c0-0.6,0.1-1,0.4-1.4c0.3-0.3,0.7-0.5,1.3-0.5c0.6,0,1,0.2,1.3,0.5c0.3,0.3,0.4,0.8,0.4,1.4v0.7
						h-1.1v-0.8c0-0.3-0.1-0.4-0.2-0.6c-0.1-0.1-0.3-0.2-0.4-0.2c-0.2,0-0.3,0.1-0.4,0.2c-0.1,0.1-0.2,0.3-0.2,0.6v3.9
						c0,0.3,0.1,0.4,0.2,0.6c0.1,0.1,0.3,0.2,0.4,0.2c0.2,0,0.3-0.1,0.4-0.2c0.1-0.1,0.2-0.3,0.2-0.6v-1H394.3z"/>
				</g>
			</g>
			<g>
				<rect x="395" y="58.1" class="st4" width="1.1" height="7.3"/>
			</g>
			<g>
				<g>
					<path class="st4" d="M398,63.7c0,0.3,0.1,0.4,0.2,0.6c0.1,0.1,0.3,0.2,0.4,0.2c0.2,0,0.3-0.1,0.4-0.2c0.1-0.1,0.2-0.3,0.2-0.6
						v-3.9c0-0.3-0.1-0.4-0.2-0.6s-0.3-0.2-0.4-0.2c-0.2,0-0.3,0.1-0.4,0.2c-0.1,0.1-0.2,0.3-0.2,0.6V63.7z M399.8,56.6l-1.1,1.2
						H398l0.7-1.2H399.8z M396.8,59.9c0-0.6,0.1-1,0.4-1.4c0.3-0.3,0.7-0.5,1.3-0.5c0.6,0,1,0.2,1.3,0.5c0.3,0.3,0.4,0.8,0.4,1.4
						v3.8c0,0.6-0.1,1-0.4,1.4c-0.3,0.3-0.7,0.5-1.3,0.5c-0.6,0-1-0.2-1.3-0.5c-0.3-0.3-0.4-0.8-0.4-1.4V59.9z"/>
				</g>
			</g>
			<g>
				<polygon class="st4" points="402.1,60.1 402.1,65.4 401,65.4 401,58.1 402.5,58.1 403.6,62.5 403.6,58.1 404.7,58.1 404.7,65.4 
					403.5,65.4 				"/>
			</g>
			<g>
				<g>
					<path class="st4" d="M367.7,70.2h1.6v2.3c0,0.6-0.1,1-0.4,1.4c-0.3,0.3-0.7,0.5-1.3,0.5c-0.6,0-1-0.2-1.3-0.5
						c-0.3-0.3-0.4-0.8-0.4-1.4v-3.8c0-0.6,0.1-1,0.4-1.4c0.3-0.3,0.7-0.5,1.3-0.5c0.6,0,1,0.2,1.3,0.5c0.3,0.3,0.4,0.8,0.4,1.4v0.7
						h-1.1v-0.8c0-0.3-0.1-0.4-0.2-0.6c-0.1-0.1-0.3-0.2-0.4-0.2c-0.2,0-0.3,0.1-0.4,0.2c-0.1,0.1-0.2,0.3-0.2,0.6v3.9
						c0,0.3,0.1,0.4,0.2,0.6c0.1,0.1,0.3,0.2,0.4,0.2c0.2,0,0.3-0.1,0.4-0.2c0.1-0.1,0.2-0.3,0.2-0.6v-1.3h-0.5V70.2z"/>
				</g>
				<g>
					<path class="st4" d="M371.2,68v2.2h0.4c0.2,0,0.4-0.1,0.5-0.2c0.1-0.1,0.2-0.3,0.2-0.6v-0.7c0-0.3,0-0.5-0.1-0.6
						c-0.1-0.1-0.2-0.2-0.4-0.2H371.2z M372.5,74.2c0,0,0-0.1,0-0.1c0,0,0-0.1,0-0.2c0-0.1,0-0.1,0-0.2c0-0.1,0-0.2,0-0.4v-1.1
						c0-0.3-0.1-0.6-0.2-0.7c-0.1-0.1-0.3-0.2-0.6-0.2h-0.4v3h-1.1v-7.3h1.7c0.6,0,1,0.1,1.3,0.4c0.3,0.3,0.4,0.7,0.4,1.3v0.6
						c0,0.7-0.2,1.2-0.7,1.5c0.3,0.1,0.5,0.3,0.6,0.6c0.1,0.3,0.2,0.6,0.2,1v1.1c0,0.2,0,0.3,0,0.5c0,0.1,0,0.3,0.1,0.4H372.5z"/>
				</g>
				<g>
					<path class="st4" d="M375.3,66.9v5.6c0,0.3,0.1,0.4,0.2,0.6c0.1,0.1,0.3,0.2,0.4,0.2c0.2,0,0.3-0.1,0.4-0.2
						c0.1-0.1,0.2-0.3,0.2-0.6v-5.6h1.1v5.5c0,0.6-0.1,1-0.4,1.4c-0.3,0.3-0.7,0.5-1.3,0.5c-0.6,0-1-0.2-1.3-0.5
						c-0.3-0.3-0.4-0.8-0.4-1.4v-5.5H375.3z"/>
				</g>
				<g>
					<path class="st4" d="M379.5,68v2.5h0.5c0.2,0,0.3,0,0.4-0.1c0.1-0.1,0.1-0.3,0.1-0.5v-1.1c0-0.3,0-0.4-0.1-0.5
						c-0.1-0.1-0.2-0.1-0.4-0.1H379.5z M380.1,66.9c0.6,0,1,0.2,1.3,0.5c0.3,0.3,0.4,0.8,0.4,1.3v0.9c0,0.6-0.1,1-0.4,1.3
						c-0.3,0.3-0.7,0.5-1.3,0.5h-0.5v2.7h-1.1v-7.3H380.1z"/>
				</g>
				<g>
					<path class="st4" d="M383.4,72.5c0,0.3,0.1,0.4,0.2,0.6c0.1,0.1,0.3,0.2,0.4,0.2c0.2,0,0.3-0.1,0.4-0.2
						c0.1-0.1,0.2-0.3,0.2-0.6v-3.9c0-0.3-0.1-0.4-0.2-0.6c-0.1-0.1-0.3-0.2-0.4-0.2c-0.2,0-0.3,0.1-0.4,0.2
						c-0.1,0.1-0.2,0.3-0.2,0.6V72.5z M382.2,68.7c0-0.6,0.1-1,0.4-1.4c0.3-0.3,0.7-0.5,1.3-0.5c0.6,0,1,0.2,1.3,0.5
						c0.3,0.3,0.4,0.8,0.4,1.4v3.8c0,0.6-0.1,1-0.4,1.4c-0.3,0.3-0.7,0.5-1.3,0.5c-0.6,0-1-0.2-1.3-0.5c-0.3-0.3-0.4-0.8-0.4-1.4
						V68.7z"/>
				</g>
				<g>
					<path class="st4" d="M387.9,68.7c0-0.6,0.1-1,0.4-1.4c0.3-0.3,0.7-0.5,1.3-0.5s1,0.2,1.3,0.5c0.3,0.3,0.4,0.8,0.4,1.4v0.2h-1.1
						v-0.3c0-0.3-0.1-0.4-0.2-0.6c-0.1-0.1-0.2-0.2-0.4-0.2c-0.2,0-0.3,0.1-0.4,0.2c-0.1,0.1-0.2,0.3-0.2,0.6c0,0.2,0.1,0.5,0.2,0.7
						c0.1,0.2,0.2,0.4,0.4,0.5c0.2,0.2,0.3,0.3,0.5,0.5c0.2,0.2,0.4,0.4,0.5,0.6c0.2,0.2,0.3,0.4,0.4,0.7c0.1,0.3,0.2,0.6,0.2,0.9
						c0,0.6-0.1,1-0.4,1.4c-0.3,0.3-0.7,0.5-1.3,0.5s-1-0.2-1.3-0.5c-0.3-0.3-0.4-0.8-0.4-1.4V72h1.1v0.5c0,0.3,0.1,0.4,0.2,0.6
						c0.1,0.1,0.3,0.2,0.4,0.2c0.2,0,0.3-0.1,0.4-0.2c0.1-0.1,0.2-0.3,0.2-0.6c0-0.2-0.1-0.5-0.2-0.7c-0.1-0.2-0.2-0.4-0.4-0.5
						c-0.2-0.2-0.3-0.3-0.5-0.5c-0.2-0.2-0.4-0.4-0.5-0.6c-0.2-0.2-0.3-0.4-0.4-0.7C388,69.3,387.9,69,387.9,68.7"/>
				</g>
				<g>
					<path class="st4" d="M393,72.5c0,0.3,0.1,0.4,0.2,0.6c0.1,0.1,0.3,0.2,0.4,0.2c0.2,0,0.3-0.1,0.4-0.2c0.1-0.1,0.2-0.3,0.2-0.6
						v-3.9c0-0.3-0.1-0.4-0.2-0.6c-0.1-0.1-0.3-0.2-0.4-0.2c-0.2,0-0.3,0.1-0.4,0.2c-0.1,0.1-0.2,0.3-0.2,0.6V72.5z M391.9,68.7
						c0-0.6,0.1-1,0.4-1.4c0.3-0.3,0.7-0.5,1.3-0.5c0.6,0,1,0.2,1.3,0.5c0.3,0.3,0.4,0.8,0.4,1.4v3.8c0,0.6-0.1,1-0.4,1.4
						c-0.3,0.3-0.7,0.5-1.3,0.5c-0.6,0-1-0.2-1.3-0.5c-0.3-0.3-0.4-0.8-0.4-1.4V68.7z"/>
				</g>
				<g>
					<path class="st4" d="M399.4,71.5v1c0,0.6-0.1,1-0.4,1.4c-0.3,0.3-0.7,0.5-1.3,0.5c-0.6,0-1-0.2-1.3-0.5
						c-0.3-0.3-0.4-0.8-0.4-1.4v-3.8c0-0.6,0.1-1,0.4-1.4c0.3-0.3,0.7-0.5,1.3-0.5c0.6,0,1,0.2,1.3,0.5c0.3,0.3,0.4,0.8,0.4,1.4v0.7
						h-1.1v-0.8c0-0.3-0.1-0.4-0.2-0.6c-0.1-0.1-0.3-0.2-0.4-0.2c-0.2,0-0.3,0.1-0.4,0.2s-0.2,0.3-0.2,0.6v3.9
						c0,0.3,0.1,0.4,0.2,0.6c0.1,0.1,0.3,0.2,0.4,0.2c0.2,0,0.3-0.1,0.4-0.2c0.1-0.1,0.2-0.3,0.2-0.6v-1H399.4z"/>
				</g>
			</g>
			<g>
				<rect x="400.1" y="66.9" class="st4" width="1.1" height="7.3"/>
			</g>
			<g>
				<path class="st4" d="M403.7,68.2l0.6,3.7h-1.1L403.7,68.2z M402.9,66.9l-1.2,7.3h1l0.2-1.3h1.4l0.2,1.3h1.2l-1.2-7.3H402.9z"/>
			</g>
			<g>
				<polygon class="st4" points="406.3,66.9 406.3,74.2 409.3,74.2 409.3,73.2 407.4,73.2 407.4,66.9 				"/>
			</g>
		</g>
	</g>
	<line class="st5" x1="336.8" y1="24.9" x2="336.8" y2="69.2"/>
</g>
</svg>
