<?xml version="1.0" encoding="UTF-8"?>
<svg width="98px" height="128px" viewBox="0 0 98 128" version="1.1" xmlns="http://www.w3.org/2000/svg" xmlns:xlink="http://www.w3.org/1999/xlink">
    <!-- Generator: Sketch 55.2 (78181) - https://sketchapp.com -->
    <title>Notifications/Mobile-Notifications Copy 3</title>
    <desc>Created with Sketch.</desc>
    <defs>
        <linearGradient x1="37.0236425%" y1="1.03244838%" x2="75.137006%" y2="99.0100495%" id="linearGradient-1">
            <stop stop-color="#192647" stop-opacity="0.5" offset="0%"></stop>
            <stop stop-color="#192647" stop-opacity="0" offset="100%"></stop>
        </linearGradient>
        <linearGradient x1="27.9838683%" y1="20.8025907%" x2="62.815473%" y2="66.9982973%" id="linearGradient-2">
            <stop stop-color="#FFFFFF" stop-opacity="0.5" offset="0%"></stop>
            <stop stop-color="#EDF6F7" stop-opacity="0.1" offset="100%"></stop>
        </linearGradient>
        <linearGradient x1="99.9999955%" y1="50.00929%" x2="0%" y2="50.00929%" id="linearGradient-3">
            <stop stop-color="#49A5E6" stop-opacity="0.2" offset="0%"></stop>
            <stop stop-color="#49A5E6" stop-opacity="0" offset="100%"></stop>
        </linearGradient>
    </defs>
    <g id="Flujo-UI" stroke="none" stroke-width="1" fill="none" fill-rule="evenodd">
        <g id="CC-01-01-00-09" transform="translate(-879.000000, -242.000000)">
            <g id="ðŸŒ-Micro" transform="translate(840.000000, 219.000000)">
                <g id="Security/Password_SMS" transform="translate(0.956250, 0.000000)">
                    <g id="Password_SMS" transform="translate(38.933333, 23.733333)">
                        <path d="M96.9681932,28.4431988 L96.9681932,28.4431988 L96.9681932,20.4556866 C96.9681932,18.8246973 96.3205062,17.2605091 95.1676159,16.1072256 C94.0147256,14.953942 92.4510708,14.306034 90.8206377,14.306034 L39.5300483,14.306034 C36.1348471,14.306034 33.3824928,17.0593273 33.3824928,20.4556866 L33.3824928,38.1306608 L21.0423652,38.1306608 C17.4684692,38.1306608 14.5712541,41.0288642 14.5712541,44.6039793 L14.5712541,85.518167 C14.5712541,89.0932822 17.4684692,91.9914856 21.0423652,91.9914856 L33.3824928,91.9914856 L33.3824928,120.741463 C33.3840453,124.137179 36.1354904,126.889563 39.5300483,126.891116 L90.8206377,126.891116 C94.2158389,126.891116 96.9681932,124.137823 96.9681932,120.741463 L96.9681932,35.9297324 L96.9681932,35.9297324 L96.9681932,28.4431988 Z" id="Path" fill="url(#linearGradient-1)" fill-rule="nonzero"></path>
                        <path d="M25.0621782,0.233602365 L76.3485735,0.233602365 C79.7449328,0.233602365 82.4982261,2.98689563 82.4982261,6.38325499 L82.4982261,106.663403 C82.4982261,110.059762 79.7449328,112.813055 76.3485735,112.813055 L25.0621782,112.813055 C21.6658189,112.813055 18.9125256,110.059762 18.9125256,106.663403 L18.9125256,6.38325499 C18.9125256,2.98689563 21.6658189,0.233602365 25.0621782,0.233602365 Z" id="Rectangle" fill="#1464A5" fill-rule="nonzero"></path>
                        <rect id="Rectangle" fill="#49A5E6" fill-rule="nonzero" x="18.9125256" y="14.3707672" width="63.5857005" height="84.3023089"></rect>
                        <polygon id="Path" fill="url(#linearGradient-2)" opacity="0.5" points="18.9125256 14.3707672 18.9125256 98.6730761 40.8383382 98.6730761 82.4982261 21.8573008 82.4982261 14.3707672"></polygon>
                        <path d="M65.5551691,24.0582071 L6.57239807,24.0582071 C2.99850209,24.0582071 0.101286957,26.9564326 0.101286957,30.5315477 L0.101286957,71.4457354 C0.101286957,75.0208505 2.99850209,77.919054 6.57239807,77.919054 L60.1306899,77.919054 L70.6026357,88.3748707 C70.8440215,88.6160387 71.2068035,88.6881322 71.5220102,88.5575724 C71.8372168,88.4270127 72.0431614,88.1194748 72.0431614,87.7781996 L72.0431614,84.1756571 L72.0431614,30.5315477 C72.0431614,28.811787 71.3590746,27.1627088 70.1418523,25.9482394 C68.92463,24.7337701 67.2743375,24.0537428 65.5551691,24.0582071 Z" id="Path" fill="#D4EDFC" fill-rule="nonzero"></path>
                        <path d="M65.5551691,24.058207 L44.4143304,24.058207 L15.5475478,77.919054 L60.1306899,77.919054 L70.6026357,88.3748707 C70.8443836,88.6164023 71.2078488,88.6883175 71.5233112,88.5570354 C71.8387737,88.4257533 72.0440006,88.1171726 72.0431639,87.7753851 L72.0431639,30.5202897 C72.0401807,28.8024807 71.3547705,27.1562966 70.1378728,25.9442626 C68.920975,24.7322287 67.2723891,24.0537453 65.5551691,24.058207 Z" id="Path" fill="url(#linearGradient-3)" fill-rule="nonzero"></path>
                        <path d="M52.1881043,44.468884 L19.956344,44.468884 C16.0716744,44.468884 12.9225275,47.6191051 12.9225275,51.5050998 L12.9225275,51.5050998 C12.9225275,55.3910945 16.0716744,58.5413156 19.956344,58.5413156 L52.1881043,58.5413156 C56.0727739,58.5413156 59.2219208,55.3910945 59.2219208,51.5050998 L59.2219208,51.5050998 C59.2219208,47.6191051 56.0727739,44.468884 52.1881043,44.468884 Z" id="Path" fill="#1D447D" fill-rule="nonzero"></path>
                        <polygon id="Path" fill="#EAF9FA" fill-rule="nonzero" points="25.6059053 52.0370377 23.6308097 51.9075713 24.7590338 53.5230865 23.7546048 54.1253865 22.8880386 52.3353732 22.0411671 54.1253865 21.0367382 53.5230865 22.1452676 51.9075713 20.170172 52.0370377 20.170172 50.9140576 22.1565217 51.054782 21.0367382 49.4280089 22.0411671 48.8257088 22.8880386 50.6100931 23.7405372 48.8257088 24.7590338 49.4280089 23.6308097 51.054782 25.6059053 50.9140576"></polygon>
                        <polygon id="Path" fill="#EAF9FA" fill-rule="nonzero" points="34.3193971 52.0370377 32.3443014 51.9075713 33.4725256 53.5230865 32.4652831 54.1253865 31.6015304 52.3353732 30.7546589 54.1253865 29.7474164 53.5230865 30.8587594 51.9075713 28.8836638 52.0370377 28.8836638 50.9140576 30.8700135 51.054782 29.7474164 49.4280089 30.7546589 48.8257088 31.6015304 50.6100931 32.454029 48.8257088 33.4725256 49.4280089 32.3443014 51.054782 34.3193971 50.9140576"></polygon>
                        <polygon id="Path" fill="#EAF9FA" fill-rule="nonzero" points="43.0328889 52.0370377 41.0549797 51.9075713 42.1832039 53.5230865 41.1787749 54.1253865 40.3150222 52.3353732 39.4653372 54.1253865 38.4609082 53.5230865 39.5722512 51.9075713 37.5971556 52.0370377 37.5971556 50.9140576 39.5835053 51.054782 38.4609082 49.4280089 39.4653372 48.8257088 40.3150222 50.6100931 41.1675208 48.8257088 42.1832039 49.4280089 41.0549797 51.054782 43.0328889 50.9140576"></polygon>
                        <polygon id="Path" fill="#EAF9FA" fill-rule="nonzero" points="51.7435671 52.0370377 49.7684715 51.9075713 50.8966957 53.5230865 49.8922667 54.1253865 49.0257005 52.3353732 48.178829 54.1253865 47.1744 53.5230865 48.2829295 51.9075713 46.3078338 52.0370377 46.3078338 50.9140576 48.2941836 51.054782 47.1744 49.4280089 48.178829 48.8257088 49.0257005 50.6100931 49.8810126 48.8257088 50.8966957 49.4280089 49.7684715 51.054782 51.7435671 50.9140576"></polygon>
                    </g>
                </g>
            </g>
        </g>
    </g>
</svg>