<?xml version="1.0" encoding="UTF-8"?>
<svg width="149px" height="102px" viewBox="0 0 149 102" version="1.1" xmlns="http://www.w3.org/2000/svg" xmlns:xlink="http://www.w3.org/1999/xlink">
    <!-- Generator: Sketch 51.1 (57501) - http://www.bohemiancoding.com/sketch -->
    <title>Illustrations/Process/Error</title>
    <desc>Created with Sketch.</desc>
    <defs>
        <polygon id="path-1" points="0.000329094217 0.103398405 101.48421 0.103398405 101.48421 101.532461 0.000329094217 101.532461"></polygon>
        <polygon id="path-3" points="20.1019612 37.5516733 6.12916929 23.5683235 0.000886477952 29.8884599 20.1952046 50.0965604 63.4052753 6.2344077 57.1837491 0.00856072558"></polygon>
        <polygon id="path-5" points="20.2233881 37.6730347 6.25059616 23.6896849 0.122313351 30.0098213 20.31718 50.21847 63.5267021 6.35576911 57.3057245 0.130470334"></polygon>
    </defs>
    <g id="recarga-1-Desktop" stroke="none" stroke-width="1" fill="none" fill-rule="evenodd">
        <g id="2.1-perfil" transform="translate(-588.000000, -255.000000)">
            <g id="Illustrations/Process/Success" transform="translate(507.000000, 255.000000)">
                <g id="Group-4" transform="translate(34.045139, 0.000000)">
                    <rect id="Rectangle-4" x="0" y="0" width="196.664352" height="103"></rect>
                    <g id="Group" transform="translate(47.233796, 0.000000)">
                        <g id="Page-1">
                            <g id="Group-21" transform="translate(0.000000, 0.013157)">
                                <g id="Group-3" transform="translate(0.000000, -0.000000)">
                                    <mask id="mask-2" fill="white">
                                        <use xlink:href="#path-1"></use>
                                    </mask>
                                    <g id="Clip-2"></g>
                                    <path d="M101.48421,50.8178749 C101.48421,78.8267857 78.7662874,101.532461 50.7422694,101.532461 C22.7182514,101.532461 0.000329094217,78.8267857 0.000329094217,50.8178749 C0.000329094217,22.8089642 22.7182514,0.103288766 50.7422694,0.103288766 C78.7662874,0.103288766 101.48421,22.8089642 101.48421,50.8178749" id="Fill-1" fill="#48AE64" mask="url(#mask-2)"></path>
                                </g>
                                <g id="Group-12" transform="translate(43.762611, 42.875740)" fill="#D8BE75">
                                    <path d="M103.544403,12.3398622 C103.544403,13.4499565 102.700277,14.3500921 101.659242,14.3500921 L100.051068,14.3500921 C99.0100334,14.3500921 98.1659068,13.4499565 98.1659068,12.3398622 L98.1659068,11.992855 C98.1659068,10.8827608 99.0100334,9.98262511 100.051068,9.98262511 L101.659242,9.98262511 C102.700277,9.98262511 103.544403,10.8827608 103.544403,11.992855 L103.544403,12.3398622 Z" id="Fill-4"></path>
                                    <path d="M102.97529,0.239506255 L22.5720876,0.239506255 L18.7041336,4.27092993 L102.97529,4.27092993 C104.032231,4.27092993 104.888973,3.49139709 104.888973,2.36376064 L104.888973,2.21465168 C104.888973,1.08646703 104.032231,0.239506255 102.97529,0.239506255" id="Fill-6"></path>
                                    <path d="M92.6895048,9.98257029 L13.2247697,9.98257029 L9.35736416,14.013994 L92.6895048,14.013994 C93.7464457,14.013994 94.468259,13.1675814 94.468259,12.0404931 L94.468259,11.8891914 C94.468259,10.7615549 93.7464457,9.98257029 92.6895048,9.98257029" id="Fill-8"></path>
                                    <path d="M72.1170574,19.3896458 L4.19968989,19.3896458 L0.00977202181,23.7571128 L72.1170574,23.7571128 C73.1739983,23.7571128 73.9632759,22.8432723 73.9632759,21.7156358 L73.9632759,21.5659787 C73.9632759,20.4383422 73.1739983,19.3896458 72.1170574,19.3896458" id="Fill-10"></path>
                                </g>
                                <g id="Group-18" opacity="0.55" transform="translate(22.371487, 25.765150)">
                                    <polygon id="Fill-13" fill="#004481" points="20.1020709 37.5514541 6.12927898 23.5686524 0.000996176024 29.8882406 20.1953143 50.0968893 63.405385 6.23418842 57.1838588 0.00888964238"></polygon>
                                    <g id="Group-17" transform="translate(-0.000000, 0.000000)">
                                        <mask id="mask-4" fill="white">
                                            <use xlink:href="#path-3"></use>
                                        </mask>
                                        <g id="Clip-16"></g>
                                        <polygon id="Fill-15" fill-opacity="0.55" fill="#277A3E" mask="url(#mask-4)" points="-1.89743866 51.9938622 65.3036004 51.9938622 65.3036004 -1.88928925 -1.89743866 -1.88928925"></polygon>
                                    </g>
                                </g>
                                <polygon id="Fill-19" fill="#FFFFFF" points="38.872225 59.7174318 24.899433 45.7340819 18.7711502 52.0542184 38.9654683 72.2623189 82.175539 28.4001662 75.9540128 22.1743192"></polygon>
                            </g>
                            <g id="Group-24" transform="translate(18.648672, 22.057499)">
                                <mask id="mask-6" fill="white">
                                    <use xlink:href="#path-5"></use>
                                </mask>
                                <g id="Clip-23"></g>
                                <polygon id="Fill-22" fill="#FFFFFF" mask="url(#mask-6)" points="-1.77656028 52.1152236 65.4244788 52.1152236 65.4244788 -1.76792784 -1.77656028 -1.76792784"></polygon>
                            </g>
                        </g>
                    </g>
                </g>
            </g>
        </g>
    </g>
</svg>