<?xml version="1.0" encoding="utf-8"?>
<!-- Generator: Adobe Illustrator 23.0.1, SVG Export Plug-In . SVG Version: 6.00 Build 0)  -->
<svg version="1.1" id="Contenido" xmlns="http://www.w3.org/2000/svg" xmlns:xlink="http://www.w3.org/1999/xlink" x="0px" y="0px"
	 viewBox="0 0 600 600" style="enable-background:new 0 0 600 600;" xml:space="preserve">
<style type="text/css">
	.st0{fill:url(#SVGID_1_);}
	.st1{fill:#F6CB5C;}
	.st2{fill:url(#SVGID_2_);}
	.st3{fill:#FDF4DC;}
	.st4{fill:url(#SVGID_3_);}
	.st5{fill:url(#SVGID_4_);}
</style>
<title>GLOMO</title>
<linearGradient id="SVGID_1_" gradientUnits="userSpaceOnUse" x1="258.5979" y1="196.7662" x2="391.2104" y2="446.1742">
	<stop  offset="0" style="stop-color:#192647;stop-opacity:0.5"/>
	<stop  offset="1" style="stop-color:#192647;stop-opacity:0"/>
</linearGradient>
<path class="st0" d="M439.1,250.1c-39.8,0-75.8,23.7-91.7,60.2c-35.7-20.9-81.7-8.9-102.6,26.8c-3.7,6.3-6.4,13.1-8.1,20.1
	c-23.6-14.3-54.4-6.8-68.7,16.8s-6.8,54.4,16.8,68.7s54.4,6.8,68.7-16.8c0.1-0.2,0.3-0.5,0.4-0.7c27.7,30.7,75,33.2,105.7,5.6
	c3.3-3,6.4-6.3,9.1-9.8c39.1,38.9,102.4,38.7,141.3-0.4s38.7-102.4-0.4-141.3C491,260.5,465.6,250,439.1,250.1L439.1,250.1z"/>
<path class="st1" d="M210.8,349.9c0,27.6-22.4,50-50,50s-50-22.4-50-50s22.4-50,50-50l0,0C188.4,299.9,210.8,322.3,210.8,349.9
	L210.8,349.9"/>
<linearGradient id="SVGID_2_" gradientUnits="userSpaceOnUse" x1="118.1164" y1="-125.2512" x2="159.5464" y2="-147.2712" gradientTransform="matrix(1 0 0 -1 0 202)">
	<stop  offset="0" style="stop-color:#FFFFFF;stop-opacity:0.6"/>
	<stop  offset="1" style="stop-color:#FFFFFF;stop-opacity:0.2"/>
</linearGradient>
<path class="st2" d="M183.1,305.2c-24.7-12.3-54.7-2.2-67,22.5c-11.8,23.8-3,52.7,20.1,65.8L183.1,305.2z"/>
<path class="st3" d="M164,373.4h-7.3v-12.2h-10.8v-5h10.8v-3.5h-10.8v-5h8.5l-11.7-21.1h8.3l9.6,19.1l10.1-19.1h8.2l-12.5,21.1h8.5
	v5H164v3.5h10.9v5H164V373.4z"/>
<path class="st1" d="M334.6,324.9c0,41.4-33.6,75-75,75c-41.4,0-75-33.6-75-75c0-41.4,33.5-75,74.9-75l0,0
	C301,249.9,334.6,283.4,334.6,324.9C334.6,324.9,334.6,324.9,334.6,324.9"/>
<linearGradient id="SVGID_3_" gradientUnits="userSpaceOnUse" x1="195.5898" y1="-88.9169" x2="257.7298" y2="-121.9469" gradientTransform="matrix(1 0 0 -1 0 202)">
	<stop  offset="0" style="stop-color:#FFFFFF;stop-opacity:0.6"/>
	<stop  offset="1" style="stop-color:#FFFFFF;stop-opacity:0.2"/>
</linearGradient>
<path class="st4" d="M293,257.8c-37.1-18.5-82.1-3.4-100.6,33.7c-17.8,35.7-4.5,79.1,30.2,98.7L293,257.8z"/>
<path class="st3" d="M281.7,360.6H236v-7.1l0.6-0.3c7-3.5,11.3-10.2,11.3-17.3c0-2.1-0.1-4.1-0.4-6.2h-11v-8.9h9.5
	c-0.6-3.4-0.9-6.7-0.9-10.1c0-12.7,8.7-21.6,21.2-21.6c6.5,0,10.3,1.8,12,2.8l0.8,0.5l-2.8,9.1l-1.2-0.7c-2.7-1.4-5.7-2.1-8.8-2
	c-9,0-10.4,7.5-10.4,11.9c0,3.4,0.4,6.7,1.1,10h15.3v8.9h-14.1c0.4,3.6,0.2,7.3-0.5,10.9c-1,3.8-2.9,7.3-5.7,10.1h29.7L281.7,360.6z
	"/>
<path class="st1" d="M489.2,300c0,55.2-44.7,99.9-99.9,99.9c-55.1,0-100.1-44.8-100.1-99.9c0-55.2,44.8-99.9,99.9-99.9l0,0
	C444.4,200,489.2,244.8,489.2,300"/>
<linearGradient id="SVGID_4_" gradientUnits="userSpaceOnUse" x1="306.7943" y1="345.7736" x2="389.6143" y2="301.7436" gradientTransform="matrix(1 0 0 -1 0 602)">
	<stop  offset="0" style="stop-color:#FFFFFF;stop-opacity:0.6"/>
	<stop  offset="1" style="stop-color:#FFFFFF;stop-opacity:0.2"/>
</linearGradient>
<path class="st5" d="M436.7,212.1c-48.5-26.3-109.2-8.2-135.4,40.3c-26.3,48.5-8.2,109.2,40.3,135.4c0.4,0.2,0.8,0.5,1.3,0.7
	L436.7,212.1z"/>
<path class="st3" d="M400.9,319.7c0-6.6-2.6-9.2-15.1-14.8c-18.1-8.1-23.3-14.4-23.3-26.9c0-12.4,10.1-21.3,20.4-23.9v-15.3h0.6
	l14.7,6.4v8.4c4.7,0.6,9.1,2.2,13.2,4.6l0.8,0.5l0.5,0.3l-0.1,0.6l-0.2,0.9l-1.8,11.6l-0.3,2.1l-0.1,1.5l-1.2-0.9l-1.7-1.4
	c-4.8-3.7-10.6-5.8-16.7-5.8c-7.6,0-11.9,3.5-11.9,9.3c0,5.5,2.8,8,15,13.6c18.1,8.3,23.9,14.7,23.9,28.1c0,12.4-8.7,21.6-19,24.9
	v17.6h-1.2l-14.1-8v-8.6c-5-0.6-14.2-2.6-20-5.7l-0.9-0.5l-0.6-0.3v-0.6l0.1-0.9l1.7-11.9l0.3-2.1l0.2-1.4l1.2,0.8l1.7,1.1
	c6.3,4.3,13.7,6.7,21.3,6.9C396.1,330.4,401,326.3,400.9,319.7"/>
</svg>
